<svg width="2194" height="957" viewBox="0 0 2194 957" fill="none" xmlns="http://www.w3.org/2000/svg">
<g clip-path="url(#clip0_1014_530)">
<rect width="2194" height="957" fill="#499DFF"/>
<g clip-path="url(#clip1_1014_530)">
<mask id="mask0_1014_530" style="mask-type:luminance" maskUnits="userSpaceOnUse" x="-8" y="-598" width="2199" height="1553">
<path d="M2190.85 954.143L2190.85 -597.696L-7.08643 -597.696L-7.08649 954.143L2190.85 954.143Z" fill="white"/>
</mask>
<g mask="url(#mask0_1014_530)">
<path d="M1118.93 118.09C1100.63 5.98143 1366.54 -81.9323 1347.55 -148.838C1324.66 -229.527 892.439 -261.795 811.07 -83.2335C761.086 26.4585 858.099 183.715 881.248 179.186C902.744 174.975 864.661 30.3349 933.323 -13.0998C964.056 -32.5326 1011.77 -28.9097 1044.24 -4.0425C1079.96 23.3256 1098.44 77.3352 1080.45 100.016C1052.32 135.498 950.521 74.5774 926.524 106.809C906.153 134.157 958.796 205.75 980.842 235.754C1069.1 355.822 1169.25 412.684 1164.19 421.248C1156.11 434.972 905.363 279.071 878.964 312.661C863.164 332.766 931.528 415.915 994.415 468.758C1055.98 520.483 1121.22 575.317 1202.66 564.901C1314.83 550.548 1412.21 418.297 1390.54 328.511C1361.72 209.096 1135.42 219.235 1118.91 118.13L1118.93 118.09Z" fill="#3693FF"/>
<path d="M1402.58 -118.713C1398.72 -93.886 1376.26 -89.0599 1300.32 -32.1203C1225.16 24.2516 1187.55 53.0189 1186.53 81.0967C1184.22 144.319 1307.56 196.142 1334.08 207.285C1382.13 227.484 1422.16 232.368 1481.9 239.675C1531.09 245.68 1582.36 251.939 1587.68 237.508C1594.87 218.035 1514.68 171.41 1485.88 154.654C1376.28 90.9212 1293.04 72.6882 1295.4 60.5385C1298.22 46.1853 1412.57 80.4444 1539.94 32.4607C1582.83 16.3164 1635.67 -3.58957 1657.34 -53.7971C1686.3 -120.899 1644.34 -206.822 1590.51 -251.301C1546.81 -287.412 1498.92 -293.259 1464.32 -297.473C1407.54 -304.384 1312.07 -300.387 1301.84 -265.182C1289.61 -223.068 1411.95 -179.258 1402.54 -118.713L1402.58 -118.713Z" fill="#3693FF"/>
<path d="M711.397 232.682C713.191 229.691 795.523 291.69 883.434 279.426C920.787 274.208 927.409 260.03 928.707 256.803C935.15 240.875 923.625 216.734 906.072 205.531C879.335 188.48 855.396 212.107 792.884 210.059C753.835 208.778 720.186 198.129 720.439 191.965C720.834 183.046 791.523 195.412 807.974 166.33C827.146 132.423 774.325 39.2335 696.304 23.0485C616.827 6.56956 553.19 78.6735 542.374 90.9179C496.192 143.234 479.133 217.069 494.087 280.94C526.832 420.754 707.653 490.28 735.532 461.908C767.33 429.558 628.886 240.577 643.486 231.168C651.386 226.068 687.205 284.644 764.219 311.106C788.215 319.356 818.594 325.284 821.571 318.646C827.876 304.55 709.329 236.13 711.417 232.682L711.397 232.682Z" fill="#3693FF"/>
<path d="M1035.85 591.62C927.548 531.49 908.691 359.897 838.908 364.267C830.654 364.781 812.587 368.343 797.021 381.239C777.714 397.228 767.037 423.593 769.855 449.109C770.879 458.342 772.947 477.109 786.837 487.562C805.238 501.425 826.498 487.248 853.606 488.684C899.295 491.107 949.237 537.239 953.197 576.912C960.35 648.485 817.611 695.935 828.704 728.481C838.415 756.954 957.593 749.708 1066.38 718.301C1212.75 676.05 1329.54 593.175 1321.05 573.526C1311.24 550.882 1154.57 657.56 1035.83 591.62L1035.85 591.62Z" fill="#3693FF"/>
<path d="M809.532 681.916C847.402 684.634 871.77 657.029 876.599 651.554C882.234 645.177 910.603 611.191 896.851 571.873C885.11 538.303 851.913 527.316 848.76 526.35C810.343 514.359 778.602 539.287 772.828 544.052C753.089 560.355 730.018 594.337 742.449 631.313C752.359 660.77 780.69 679.831 809.515 681.896L809.532 681.916Z" fill="#3693FF"/>
<path d="M615.569 722.455C612.711 690.775 698.199 681.109 725.719 605.953C727.909 599.968 746.526 546.847 718.925 507.921C687.718 463.915 613.008 460.035 563.103 487.562C523.561 509.377 487.468 557.618 496.334 607.075C505.061 655.826 555.203 693.079 572.915 684.752C583.967 679.554 576.264 659.489 592.911 632.713C606.997 610.09 633.143 591.225 641.573 596.524C661.197 608.849 562.924 738.011 606.487 798.239C631.626 832.992 699.577 838.663 721.172 840.474C733.15 841.478 746.584 841.478 761.914 838.21C777.97 834.783 815.661 823.6 816.232 811.058C817.553 782.115 619.844 770.263 615.529 722.455L615.569 722.455Z" fill="#3693FF"/>
<path d="M744.696 695.54C743.513 691.7 736.657 669.453 719.104 667.012C701.136 664.512 688.31 685.046 686.793 687.567C680.251 698.375 672.922 721.08 687.641 736.632C700.031 749.725 722.118 751.459 735.907 740.414C754.075 725.845 745.719 698.771 744.716 695.54L744.696 695.54Z" fill="#3693FF"/>
<path d="M782.444 750.435C784.593 751.026 797.003 754.393 803.328 746.91C809.809 739.252 803.997 727.204 803.267 725.764C800.155 719.522 791.705 709.383 780.078 711.667C770.287 713.577 762.958 723.381 764.063 733.071C765.499 745.849 780.612 749.942 782.423 750.435L782.444 750.435Z" fill="#3693FF"/>
<path d="M394.496 422.707C399.163 414.495 516.016 485.261 534.83 463.425C546.041 450.427 518.398 409.473 501.633 385.001C434.884 287.536 354.42 235.301 343.172 228.153C244.939 165.739 166.861 116.143 110.769 149.733C39.1918 192.617 36.5731 351.195 89.6478 381.986C156.103 420.521 299.828 252.922 331.096 279.425C376.153 317.622 66.7934 656.201 162.073 804.248C206.795 873.71 328.592 882.571 350.697 884.186C385.728 886.724 497.95 894.876 527.264 840.454C573.092 755.359 386.161 573.134 430.687 525.248C441.918 513.179 461.678 516.289 465.401 502.625C473.382 473.347 390.594 429.497 394.476 422.687L394.496 422.707Z" fill="#3693FF"/>
<path d="M438.252 270.389C481.045 260.111 440.833 129.354 510.147 49.6697C581.879 -32.7894 704.443 15.8635 723.456 -32.7488C753.737 -110.128 487.684 -347.445 371.837 -281.583C316.475 -250.102 291.789 -147.301 311.471 -74.9636C316.063 -58.0892 321.125 -40.407 337.123 -28.2202C388.191 10.7062 490.897 -51.9248 497.084 -40.2888C504.47 -26.429 345.28 37.1888 340.137 133.153C337.617 180.133 372.608 223.922 374.851 226.66C387.245 241.8 415.164 275.941 438.235 270.389L438.252 270.389Z" fill="#3693FF"/>
<path d="M208.867 118.073C219.267 138.53 242.28 153.14 261.685 154.262C322.544 157.787 381.12 30.6322 356.765 4.95725C340.513 -12.1943 295.22 37.0906 208.884 30.5916C193.615 29.4493 123.065 22.5008 111.165 -13.5124C100.15 -46.8455 148.183 -78.4887 136.067 -99.4761C125.329 -118.101 72.7642 -118.791 42.1283 -94.9474C-21.5289 -45.3888 7.03899 112.067 59.4852 128.624C107.698 143.846 180.772 41.3624 201.339 57.7434C211.367 65.7362 194.679 90.1133 208.884 118.073L208.867 118.073Z" fill="#3693FF"/>
<path d="M253.764 9.1104C285.326 -8.53114 280.382 -64.6462 276.402 -109.656C269.249 -190.601 232.94 -295.348 190.759 -295.15C158.014 -295.013 151.865 -232.261 113.802 -228.797C73.6314 -225.134 17.401 -293.93 23.2532 -355.479C30.423 -430.81 130.274 -492.32 208.863 -482.161C310.721 -469.008 329.359 -341.598 412.579 -341.913C487.17 -342.189 571.357 -444.869 552.916 -506.3C523.503 -604.274 226.044 -620.479 103.203 -531.935C72.4692 -509.785 50.3818 -480.664 50.3818 -480.664C3.31463 -418.603 -1.73005 -349.572 -0.922497 -314.761C-0.604871 -300.939 2.40916 -169.749 73.02 -138.305C105.173 -123.992 133.19 -135.983 148.479 -114.164C165.363 -90.0845 138.688 -63.7202 153.01 -31.5869C168.496 3.14543 223.601 25.9848 253.744 9.13072L253.764 9.1104Z" fill="#3693FF"/>
<path d="M297.148 302.444C285.248 293.309 249.726 350.073 150.014 402.348C76.034 441.136 53.8283 431.785 26.6422 465.689C-7.7577 508.614 -16.1507 578.45 2.88228 632.341C21.4186 684.85 51.7198 695.661 50.4223 734.135C49.7702 752.997 39.7418 775.738 22.503 814.823C18.8201 823.171 16.1407 828.605 16.4752 836.696C17.5192 863.297 50.0474 891.828 81.3725 890.979C103.281 890.388 123.496 875.328 133.444 860.069C186.265 779.006 -2.22331 618.4 45.9082 537.712C70.3 496.839 125.683 526.272 200.963 471.735C280.656 413.985 311.647 313.57 297.169 302.444L297.148 302.444Z" fill="#3693FF"/>
<path d="M76.8216 156.898C84.309 174.641 43.4689 191.65 30.0516 245.305C27.8249 254.224 22.3275 280.176 29.4805 310.339C41.124 359.485 75.9362 376.042 68.5297 391.027C60.9645 406.323 14.7625 409.199 -1.6485 388.583C-18.0426 367.988 9.97465 342.333 14.1914 281.139C19.1955 208.704 -15.1437 173.535 5.89635 151.997C24.2603 133.193 69.7902 140.202 76.8216 156.898Z" fill="#3693FF"/>
<path d="M156.812 583.962C172.22 581.522 186.621 534.937 171.49 520.682C158.978 508.887 129.309 522.02 94.9494 537.218C79.4642 544.072 71.6421 547.614 67.405 553.819C45.794 585.479 86.6948 660.534 116.837 659.391C130.687 658.861 144.537 642.145 147.771 626.589C152.555 603.513 134.39 581.089 139.476 577.584C142.726 575.337 149.186 585.202 156.833 584.002L156.812 583.962Z" fill="#3693FF"/>
<path d="M1059.98 75.8379C1066.27 62.3127 1035.96 31.6968 1004.15 18.5231C990.12 12.7136 966.695 2.85189 948.314 15.5119C934.224 25.2181 925.125 45.8912 931.704 60.7581C937.16 73.0836 954.599 75.0336 988.289 78.8525C1029.15 83.4792 1055.04 86.433 1059.96 75.8379L1059.98 75.8379Z" fill="#3693FF"/>
<path d="M1746.61 397.073C1676.96 372.814 1688.51 287.422 1622.11 263.599C1555.92 239.85 1456.62 293.248 1431.97 363.128C1427.22 376.576 1423.66 395.16 1448.58 501.878C1474.25 611.824 1497.3 674.536 1487.81 679.085C1473.29 686.033 1402.93 546.908 1373.12 557.679C1349.34 566.263 1382.2 659.158 1339.18 691.153C1304.64 716.828 1261.16 673.589 1213.16 693.417C1136.15 725.233 1123.56 888.123 1149.03 898.523C1174.41 908.878 1214.54 758.529 1326.35 740.161C1399.66 728.109 1431.22 784.738 1479.51 768.059C1589.29 730.137 1559.74 391.341 1588.17 389.509C1615.43 387.759 1612.32 701.39 1717.19 729.586C1785.99 748.093 1887.69 640.057 1918.67 535.035C1920.91 527.435 1952.73 415.698 1907.36 383.467C1867.56 355.213 1814.11 420.541 1746.65 397.032L1746.61 397.073Z" fill="#3693FF"/>
<path d="M1095.82 895.88C1110.16 859.336 1078.84 810.666 1043.75 789.557C969.175 744.686 854.511 810.447 856.994 838.19C858.549 855.46 905.599 859.099 904.535 872.114C903.45 885.366 853.308 898.56 803.068 892.906C747.963 886.724 742.722 863.493 688.367 854.02C626.818 843.29 558.491 859.985 554.808 882.294C552.957 893.517 567.712 904.562 577.443 911.71C620.236 943.056 670.574 943.529 717.78 942.248C887.255 937.682 884.103 914.349 945.277 929.804C972.524 936.695 1002.87 948.825 1040.36 937.719C1049.17 935.12 1084.53 924.627 1095.82 895.859L1095.82 895.88Z" fill="#3693FF"/>
<path d="M533.316 936.601C538.969 927.07 540.938 912.362 534.438 902.676C513.398 871.27 433.289 937.192 329.579 915.12C269.29 902.281 237.985 867.609 177.008 877.573C165.739 879.421 138.746 884.146 133.762 900.412C128.974 916.043 147.02 934.022 149.602 936.601C182.289 969.187 234.596 947.095 326.17 943.394C446.628 938.51 513.198 970.387 533.295 936.601L533.316 936.601Z" fill="#3693FF"/>
<path d="M96.0704 928.764C98.3343 916.458 72.4254 896.238 49.6723 899.348C47.8782 899.604 30.4028 902.224 27.0341 914.056C24.2567 923.823 32.6869 934.158 39.4851 938.943C58.7546 952.509 93.685 941.738 96.0704 928.764Z" fill="#3693FF"/>
<path d="M1861.95 332.212C1817.83 324.749 1768.24 352.06 1760.09 336.74C1751.67 320.951 1806.03 295.158 1801.58 264.342C1795.69 223.567 1693.02 216.676 1541.26 138.411C1500.3 117.282 1482.88 104.957 1483.91 91.6679C1486.9 53.3533 1638.19 72.8435 1689.14 -4.85038C1744.11 -88.6884 1633.25 -210.959 1670.29 -246.144C1723.74 -296.922 2040.09 -123.302 2018.89 -2.58604C1999.37 108.563 1700.69 135.457 1706.52 175.367C1712.96 219.549 2071.79 136.637 2161.51 279.425C2232.38 392.227 2113.1 610.502 2050.59 605.936C1985.16 601.151 1978.25 351.901 1861.97 332.212L1861.95 332.212Z" fill="#3693FF"/>
<path d="M1752.66 290.747C1756.56 288.564 1767.1 282.657 1767.75 274.15C1770.12 243.494 1642.64 196.28 1629.66 216.085C1622.14 227.565 1651.93 263.342 1683.98 280.943C1694.58 286.753 1727.52 304.827 1752.64 290.747L1752.66 290.747Z" fill="#3693FF"/>
<path d="M1751 345.19C1757.01 330.934 1739.24 308.724 1724.58 310.396C1715.28 311.461 1709.87 321.799 1708.98 323.59C1704.45 332.685 1704.33 346.214 1712.59 353.595C1724.03 363.815 1745.96 357.18 1751 345.19Z" fill="#3693FF"/>
<path d="M2059 41.9135C2032.6 99.7015 1926.92 90.4278 1925.44 118.82C1924.28 141.129 1988.61 165.698 2040.9 170.859C2081.05 174.817 2119.37 178.595 2140.49 157.293C2193.8 103.541 2057.76 -29.3421 2102.01 -188.829C2125.46 -273.335 2180.86 -298.065 2165.39 -329.075C2132.71 -394.641 1854.83 -345.28 1846.22 -277.036C1840.69 -233.17 1950.62 -214.72 2029.57 -77.9578C2050.43 -41.8061 2076.22 4.22754 2059 41.9305L2059 41.9135Z" fill="#3693FF"/>
<path d="M2154.06 544.86C2122.5 539.642 2086.37 691.663 2043.91 685.107C2008.41 679.632 2004.43 568.919 1979.01 568.977C1958.09 569.017 1961.93 644.034 1905.07 700.187C1859.74 744.943 1813.3 740.729 1813.03 760.516C1812.57 793.674 1942.37 843.506 1983.55 802.751C2016.25 770.381 1985.85 688.078 1992.61 686.621C2001.41 684.732 2018.99 831.968 2086.17 847.997C2107.73 853.134 2126.74 842.975 2131.45 840.454C2221.01 792.572 2192.7 551.237 2154.08 544.86L2154.06 544.86Z" fill="#3693FF"/>
<path d="M2138.97 903.798C2186.41 930.142 2189.61 935.438 2188.78 938.49C2185.11 951.799 2101.44 931.697 1954.88 920.395C1834.64 911.122 1797.46 917.442 1794.92 905.312C1790.35 883.477 1900.9 815.354 2001.67 837.443C2031.1 843.901 2067.06 863.868 2138.99 903.798L2138.97 903.798Z" fill="#3693FF"/>
<path d="M1782.84 837.443C1779.22 784.893 1722.36 746.755 1686.27 754.49C1645.9 763.156 1633.11 828.839 1621.37 825.374C1610.47 822.144 1623.77 766.126 1623.26 695.678C1622.59 602.057 1597.82 520.267 1588.92 521.111C1582.91 521.683 1588.21 559.429 1577.61 618.772C1567.32 676.344 1552.61 758.664 1500.06 787.175C1451.99 813.265 1420.8 767.978 1343.71 781.662C1265.53 795.543 1188.42 861.482 1197.32 899.286C1211.92 961.309 1464.91 976.98 1497.64 906.83C1509.03 882.395 1489.58 856.345 1505.19 843.489C1527.31 825.256 1593.09 855.676 1636.48 893.261C1664.77 917.776 1666.72 930.73 1684.77 933.982C1722.95 940.852 1786.88 895.88 1782.86 837.463L1782.84 837.443Z" fill="#3693FF"/>
<path d="M1842.52 816.868C1830.07 812.478 1820.71 807.084 1808.2 799.875C1788.48 788.517 1782.76 782.491 1780.11 784.518C1775.33 788.182 1793.8 807.574 1794.15 837.288C1794.45 861.939 1782.06 876.312 1787.1 880.07C1791.97 883.693 1803.41 870.246 1834.6 851.029C1857.71 836.774 1871.89 831.536 1870.77 826.162C1869.89 821.988 1860.92 823.367 1842.54 816.888L1842.52 816.868Z" fill="#3693FF"/>
<path d="M1614.57 930.203C1615.36 926.303 1609.57 918.763 1597.96 903.819C1575.99 875.524 1568.35 872.905 1563.25 872.138C1561.69 871.902 1549.16 870.208 1542.87 877.414C1535.48 885.9 1544.65 897.654 1537.59 906.83C1530.31 916.283 1514.92 911.105 1511.94 918.131C1509.36 924.235 1518.13 934.81 1526.28 940.754C1555.7 962.238 1610.88 948.318 1614.57 930.203Z" fill="#3693FF"/>
</g>
</g>
</g>
<defs>
<clipPath id="clip0_1014_530">
<rect width="2194" height="957" fill="white"/>
</clipPath>
<clipPath id="clip1_1014_530">
<rect width="1558" height="2203" fill="white" transform="translate(2194 -601) rotate(90)"/>
</clipPath>
</defs>
</svg>
