<svg width="2194" height="957" viewBox="0 0 2194 957" fill="none" xmlns="http://www.w3.org/2000/svg">
<g clip-path="url(#clip0_1014_464)">
<rect width="2194" height="957" fill="#70D1BD"/>
<path d="M1207.89 459.763C1301.19 393.87 1348.54 245.642 1294.05 132.685C1250.45 42.2871 1138.58 -31.8855 1079.77 0.0855713C1038.53 22.4973 1020.46 98.7049 1044.43 150.363C1077.91 222.53 1183.5 225.442 1181.41 254.233C1178.97 287.91 1035.24 272.527 971.531 364.73C966.036 372.687 937.788 413.557 951.648 448.707C971.696 499.566 1064.81 500.303 1077.6 500.406C1089.75 500.509 1151.01 499.955 1207.92 459.763H1207.89Z" fill="#5AC8B5"/>
<path d="M1303.89 28.8152C1267.63 74.9549 1355.76 142.509 1343.67 263.074C1338.25 316.947 1314.37 366.163 1281.82 433.244C1245.53 508.015 1222.63 528.952 1233.21 550.385C1254.02 592.506 1385.77 598.842 1423.21 543.759C1468.67 476.821 1339.3 371.598 1385.65 269.718C1417.61 199.458 1498.56 206.84 1507.15 145.952C1514.76 92.1229 1460.92 19.5455 1390.06 8.92267C1378.04 7.11853 1326.96 -0.530396 1303.89 28.8152Z" fill="#5AC8B5"/>
<path d="M1741.11 94.9317C1668.95 102.746 1666.37 189.657 1553.87 238.671C1483.62 269.267 1424.9 261.391 1424.33 274.005C1423.14 299.761 1668.52 310.633 1672.42 361.572C1674 382.121 1636.11 407.037 1600.2 411.837C1507.13 424.264 1435.75 300.461 1413.73 315.224C1395.45 327.489 1413.3 434.003 1480.85 468.376C1571.58 514.538 1691.36 399.777 1731.19 438.968C1765.08 472.314 1683.26 560.271 1719.89 623.883C1757.39 688.995 1905.05 704.52 2000.17 638.015C2059.49 596.547 2114.78 511.707 2089.67 458.941C2052.98 381.854 1866.72 419.651 1851.79 359.974C1842.91 324.493 1906.98 304.029 1909.5 246.874C1912.64 175.587 1818.34 86.5237 1741.09 94.8914L1741.11 94.9317Z" fill="#5AC8B5"/>
<path d="M1614.79 167.671C1595.79 212.582 1536.77 228.991 1521.48 233.255C1507.05 237.274 1480.11 244.659 1474.19 235.327C1461.37 215.149 1558.21 134.574 1547.78 121.447C1545.57 118.66 1540.95 121.942 1533.74 119.477C1512.23 112.159 1497.47 64.0278 1513.44 39.295C1531.36 11.5481 1573.37 36.1379 1607.19 7.95831C1648.74 -26.6566 1625.45 -95.7469 1647.53 -101.878C1667.38 -107.396 1709.17 -57.931 1711.66 -3.89288C1713.48 36.1965 1693.9 84.3713 1667.6 88.0418C1638.47 92.0826 1612.79 39.911 1602.74 45.4662C1591.16 51.8868 1637.22 114.619 1614.79 167.671Z" fill="#5AC8B5"/>
<path d="M1632.36 362.372C1630.29 351.544 1611 348.137 1582.12 341.166C1495.69 320.31 1470.29 302.94 1465.14 311.33C1458.77 321.725 1493.15 356.219 1526.38 375.723C1544.3 386.243 1573.71 403.51 1602.53 393.008C1617.91 387.391 1634.48 373.383 1632.36 362.372Z" fill="#5AC8B5"/>
<path d="M1907.55 -119.864C1916.35 -157.027 1872.89 -217.808 1825.9 -214.508C1780.72 -211.329 1751.2 -150.177 1756.43 -108.874C1758.66 -91.1561 1763.97 -58.998 1784.7 -31.1301C1799.09 -11.7692 1814.4 -2.17316 1811.39 10.8917C1808.62 22.9703 1791.44 32.6507 1783.38 28.5695C1777.28 25.471 1777.11 14.7859 1776.85 9.33337C1774.82 -31.9075 1752.18 -83.6281 1742.7 -83.342C1732.59 -83.0341 1711.45 -22.9054 1735.23 27.7885C1755.14 70.221 1804.11 100.879 1824.73 89.0465C1846.61 76.4949 1820.33 25.5114 1845.93 4.22546C1876 -20.7933 1962.96 7.44495 1970.75 52.5212C1973.09 65.9932 1969.22 85.9297 1957.02 91.0156C1925.08 104.323 1868.5 2.31873 1850.65 11.6911C1837.16 18.7644 1843.45 90.6049 1890.68 129.118C1926.12 158.012 1987.85 170.787 2017.86 140.888C2042.56 116.28 2035.57 75.0576 2034.34 67.8413C2023.03 1.13068 1949.87 -48.4778 1885.97 -54.6711C1850.71 -58.0959 1820.23 -47.2678 1818.44 -53.0944C1815.59 -62.4228 1897.32 -76.6135 1907.55 -119.845V-119.864Z" fill="#5AC8B5"/>
<path d="M2078.56 233.952C2074.15 228.54 2115.01 200.731 2109.43 183.299C2099.31 151.573 1943.41 150.774 1924.4 201.878C1920.71 211.805 1925.55 214.676 1925.57 233.175C1925.67 293.692 1873.93 317.398 1881.74 347.976C1890.41 381.975 1966.59 400.331 1981.96 381.216C1982.66 380.336 1983.17 379.309 1983.17 379.309C1988.92 367.744 1972.35 349.124 1967.84 343.524C1945.74 316.188 1933.67 256.859 1955.01 230.157C1969.13 212.501 2000.13 206.165 2020.42 217.074C2053.94 235.06 2054.78 295.291 2031.94 324.413C2030.9 325.744 2016.08 344.243 2004.21 340.631C1991.81 336.88 1984.73 309.647 1994.27 294.554C2003.86 279.355 2024.75 285.2 2030.65 271.255C2035.14 260.654 2028.25 245.066 2017.29 238.011C2005.34 230.304 1987.75 232.21 1978.03 240.637C1954.74 260.859 1971.96 322.975 1997.26 362.372C2005.54 375.272 2018.99 395.674 2044.96 410.481C2085.72 433.695 2146.89 437.142 2160.97 413.436C2182.27 377.505 2089.77 288.749 2084.3 292.482C2081.21 294.594 2106.67 325.293 2095.29 343.792C2088.34 355.071 2068.8 360.032 2058.66 353.223C2039 340.019 2046.72 277.327 2069.13 269.33C2103.16 257.145 2157.3 375.906 2181 365.94C2204.47 356.054 2185.1 221.771 2140.96 212.787C2114.29 207.353 2082.78 239.203 2078.54 233.993L2078.56 233.952Z" fill="#5AC8B5"/>
<path d="M1681.56 617.876C1663.28 558.65 1741.07 495.753 1714.28 462.366C1705.43 451.333 1690.23 449.877 1686.81 449.529C1657.15 446.676 1644.99 477.664 1594.69 505.554C1570.53 518.945 1553.89 528.175 1532.65 526.492C1487.04 522.884 1468.24 472.743 1455.18 478.852C1439.01 486.421 1446.1 573.662 1488.68 592.465C1518.77 605.776 1554.01 579.32 1559.34 587.75C1567.24 600.217 1480.54 642.547 1474.56 710.262C1471.09 749.329 1494.83 792.967 1518.53 795.079C1552.46 798.094 1560.96 713.625 1610.39 703.966C1672.42 691.847 1725.7 811.855 1771.33 795.079C1792.12 787.453 1804.64 753.901 1799.84 727.797C1789.29 670.169 1699.32 675.336 1681.56 617.833V617.876Z" fill="#5AC8B5"/>
<path d="M2146.6 806.113C2147.13 795.901 2151.05 719.389 2104.21 691.455C2053.59 661.27 1970.3 703.618 1934.63 757.429C1902.71 805.559 1907.69 864.643 1898.51 864.254C1892.75 864.009 1886.74 840.589 1887.36 817.106C1888.92 758.598 1930.86 733.888 1920.49 713.441C1908.58 689.941 1836.36 689.611 1819.99 718.157C1804.58 745.064 1845.87 785.197 1827.85 809.274C1814.75 826.765 1785.82 815.075 1779.18 829.698C1770.92 847.827 1807.45 883.223 1837.28 901.946C1859.42 915.85 1876.62 926.638 1895.38 922.374C1937.23 912.836 1942.5 838.517 1962.9 839.111C1988.44 839.87 1982.8 956.435 2023.83 968.759C2062.84 980.471 2141.95 897.292 2146.62 806.135L2146.6 806.113Z" fill="#5AC8B5"/>
<path d="M1055.31 568.924C1046.4 516.771 941.254 522.33 920.283 451.109C902.675 391.288 965.75 349.534 942.259 298.738C923.932 259.074 865.65 241.685 822.93 246.892C714.177 260.163 643.044 427.542 683.182 487.22C714.261 533.444 803.066 501.616 825.266 549.688C836.727 574.523 817.846 593.349 794.659 677.286C776.908 741.555 768.032 773.691 772.687 796.66C795.543 909.84 1135.06 1003.32 1218.61 894.051C1271.75 824.572 1223.78 669.964 1152.67 645.869C1116.3 633.541 1054.11 663.319 929.694 722.832C904.765 734.768 861.12 756.281 859.03 752.673C854.438 744.756 1068.45 645.825 1055.3 568.884L1055.31 568.924Z" fill="#5AC8B5"/>
<path d="M1191.41 542.754C1192.89 529.796 1212.28 527.845 1221.77 503.482C1222.59 501.392 1228.04 487.059 1223.86 484.103C1218.55 480.37 1204.72 499.896 1175.2 515.521C1164.88 520.977 1149.9 528.894 1130.71 530.698C1096.44 533.917 1069.99 515.623 1067.9 519.704C1066.36 522.7 1081.7 530.613 1097.73 553.216C1103.59 561.481 1106.52 565.602 1107.16 569.969C1110.91 595.828 1060.64 616.828 1064.77 627.04C1068.13 635.407 1105.54 630.652 1134.38 622.324C1161.69 614.452 1164.33 608.277 1176.77 609.754C1210.74 613.795 1223.27 663.547 1234.36 660.019C1243.69 657.064 1248.46 617.506 1230.18 587.768C1214.33 561.99 1189.75 557.561 1191.45 542.736L1191.41 542.754Z" fill="#5AC8B5"/>
<path d="M1385.07 663.69C1380.2 665.453 1370.95 632.25 1339.01 610.799C1330.09 604.812 1314.72 594.805 1296.09 598.229C1293.17 598.761 1276.79 601.779 1268.35 614.983C1252.97 639.041 1279.5 672.428 1266.26 684.627C1257.03 693.12 1240 680.751 1233.27 688.811C1225.91 697.652 1236.86 723.961 1255.78 737.496C1272.04 749.145 1298.36 754.356 1313.88 742.725C1340.53 722.792 1324.99 661.046 1329.05 660.511C1334.15 659.854 1334.79 760.076 1374.58 774.124C1397.8 782.326 1434.48 761.246 1446.8 733.807C1460.8 702.653 1436.96 677.635 1454.65 651.589C1468.96 630.531 1498.56 626.284 1497.04 621.22C1495.67 616.644 1473.27 625.69 1458.83 613.898C1447.39 604.547 1452.99 591.893 1442.62 583.012C1429.31 571.612 1399.4 574.586 1386.61 589.822C1366.99 613.201 1391.14 661.435 1385.03 663.649L1385.07 663.69Z" fill="#5AC8B5"/>
<path d="M1722.26 814.748C1707.45 767.641 1654.08 728.105 1620.99 739.34C1601.57 745.944 1607.05 763.93 1577.4 788.828C1569.61 795.369 1534.97 824.469 1497.33 818.276C1468.12 813.476 1462.52 791.596 1443.15 794.713C1416.13 799.058 1417.59 843.152 1392.52 851.252C1350.16 864.951 1286.76 758.312 1268.86 768.792C1260.87 773.467 1273.66 794.629 1271.22 831.234C1267.41 888.349 1230.08 928.772 1220.58 938.449C1180.28 979.506 1140.68 976.452 1140.51 989.103C1140 1025.95 1475.17 1084.61 1493.81 1030.34C1507.7 989.843 1340.82 899.507 1350.12 884.268C1354.69 876.784 1392.29 903.075 1449.06 912.55C1570.35 932.769 1626.81 850.636 1690.48 883.102C1750.03 913.452 1726.93 998.702 1788.22 1024.48C1843.69 1047.8 1922.7 1003.23 1921.29 977.354C1919.24 939.413 1744.38 940.994 1725.8 863.085C1721.42 844.688 1729.68 838.333 1722.27 814.789L1722.26 814.748Z" fill="#5AC8B5"/>
<path d="M1599.13 953.255C1591.63 958.466 1579.07 943.905 1554.11 933.876C1525.31 922.289 1481.14 917.203 1466.19 937.547C1460.23 945.669 1459.51 957.01 1462.01 965.294C1466.5 980.203 1482.57 989.102 1513.3 1005.61C1531.2 1015.23 1538.31 1017.44 1538.94 1023.41C1540.36 1036.7 1507.17 1045.19 1508.58 1054.29C1510.1 1064.06 1550.8 1070.23 1591.81 1063.73C1619.63 1059.32 1682.12 1049.4 1703.83 1000.38C1713.07 979.484 1718.46 943.494 1697.55 919.235C1679.57 898.378 1651.88 897.395 1647.31 897.248C1638.94 896.962 1615.76 896.141 1605.43 910.335C1593.99 926.062 1607.76 947.289 1599.15 953.277L1599.13 953.255Z" fill="#5AC8B5"/>
<path d="M1794.37 1055.45C1770.53 1056.51 1755.94 1052.68 1748.29 1042.91C1742 1034.88 1743.37 1026.63 1732.75 1000.32C1729.98 993.469 1725 981.208 1722.73 981.783C1717.99 982.971 1732.67 1038.53 1718.69 1045.15C1713.73 1047.49 1709.83 1041.48 1700.69 1042.94C1687.08 1045.09 1674.86 1061.72 1678.14 1069C1681.79 1077.06 1703.48 1071.58 1735.25 1070C1774.59 1068.06 1786.73 1074.19 1830.43 1078.02C1864.01 1080.96 1982.32 1091.33 1994.25 1057.97C1999.37 1043.65 1985.68 1019.19 1966.18 1010.35C1925.33 991.831 1880 1051.63 1794.35 1055.45H1794.37Z" fill="#5AC8B5"/>
<path d="M1022.35 1030.08C990.147 1039.02 959.072 938.247 904.582 937.404C856.613 936.667 829.41 1014.02 804.606 1005.47C776.01 995.626 807.863 891.202 771.887 871.698C738.574 853.631 645.937 907.71 651.758 968.311C655.961 1012.03 710.572 1049.68 734.188 1039C758.255 1028.11 749.482 967.365 762.458 965.95C773.218 964.784 774.737 1007.09 807.742 1032.7C831.193 1050.91 859.422 1052.06 884.945 1053.13C940.704 1055.42 967.947 1034.71 990.929 1053.13C1003.27 1063.01 998.964 1071.81 1011.86 1079.32C1035.31 1092.95 1072.01 1076.86 1092.46 1058.89C1112.39 1041.4 1118.97 1020.36 1122.29 1009.67C1126.74 995.402 1130.2 984.324 1124.91 974.585C1116.41 958.957 1088.69 952.907 1069.44 960.967C1036.25 974.871 1044.41 1023.95 1022.33 1030.08H1022.35Z" fill="#5AC8B5"/>
<path d="M1039.61 970.38C1037.67 985.289 1029.12 1014.16 1013.97 1014.88C1003.14 1015.39 994.534 1001.28 987.789 990.272C980.469 978.274 972.29 964.905 978.36 955.184C984.939 944.642 1005.5 942.86 1010.81 949.955C1017.43 958.792 1000.09 981.002 1002.96 982.949C1006.46 985.329 1030.29 950.773 1038.03 954.671C1041.44 956.394 1040.33 964.821 1039.61 970.38Z" fill="#5AC8B5"/>
<path d="M847.675 926.656C839.412 934.716 846.648 946.49 836.503 962.525C829.737 973.229 816.72 982.788 810.14 979.873C802.699 976.573 809.113 955.408 807.023 912.917C805.956 891.528 804.071 880.946 798.353 873.01C777.832 844.607 728.305 861.486 721.56 843.232C716.579 829.779 737.632 804.8 751.899 806.872C765.696 808.881 761.636 834.516 786.052 852.81C802.842 865.402 816.229 861.834 823.34 875.185C830.433 888.492 819.981 901.843 826.476 906.991C833.448 912.506 845.665 898.007 864.546 899.137C887.197 900.49 905.462 923.459 902.612 928.585C899.047 935.086 862.125 912.528 847.653 926.616L847.675 926.656Z" fill="#5AC8B5"/>
<path d="M794.146 617.997C795.459 595.952 796.526 569.621 778.977 552.024C746.074 519.03 674.673 544.58 674.82 551.492C674.901 555.122 694.581 551.367 706.736 564.575C723.896 583.217 723.343 632.599 692.612 649.396C661.719 666.271 620.433 639.265 612.54 613.26C604.669 587.339 630.742 564.946 622.872 556.743C614.671 548.192 572.075 566.728 546.592 600.69C506.7 653.866 520.516 728.985 528.797 730.012C537.449 731.075 542.554 651.63 565.965 649.374C601.552 645.928 634.249 825.514 666.454 822.17C696.488 819.035 702.76 659.323 719.836 659.854C730.168 660.181 728.895 718.813 746.012 721.644C763.03 724.453 791.01 670.906 794.168 617.979L794.146 617.997Z" fill="#5AC8B5"/>
<path d="M763.276 744.199C754.092 726.07 731.584 724.163 727.157 723.774C719.653 723.14 716.374 724.882 714.672 726.132C708.808 730.481 708.54 739.094 708.316 743.667C708.316 743.667 707.249 764.975 700.996 788.703C693.965 815.342 674.534 824.814 677.978 829.533C681.686 834.637 708.173 828.917 718.791 811.199C730.601 791.53 719.264 763.068 721.927 762.514C723.629 762.144 725.455 774.12 736.051 783.984C739.722 787.39 745.605 792.865 751.22 791.838C762.106 789.869 773.013 763.435 763.254 744.199H763.276Z" fill="#5AC8B5"/>
<path d="M659.119 383.434C646.92 412.061 639.354 460.91 660.696 492.863C666.619 501.741 672.85 506.416 673.775 516.936C675.597 537.609 653.951 546.304 657.025 563.017C659.713 577.578 677.197 576.859 684.249 596.015C688.72 608.134 687.858 625.177 679.023 631.103C667.749 638.671 643.539 628.169 635.584 611.723C626.052 592.058 645.196 575.077 637.161 558.833C628.656 541.669 596.615 533.671 573.304 541.034C558.586 545.688 532.12 561.253 504.734 671.933C477.018 783.907 485.585 842.763 471.751 845.242C453.218 848.586 404.633 748.877 396.906 635.286C395.615 616.193 387.271 457.918 487.452 334.214C516.357 298.532 557.786 261.556 576.953 271.379C596.12 281.203 584.252 333.334 599.975 337.885C617.422 342.93 639.93 281.243 665.39 285.53C678.715 287.766 688.474 307.329 689.457 323.221C690.913 346.703 672.586 351.771 659.097 383.434H659.119Z" fill="#5AC8B5"/>
<path d="M608.34 758.331C583.514 709.316 582.491 676.586 571.173 676.648C561.784 676.711 554.445 699.412 551.8 707.534C541.901 738.192 548.584 763.251 541.861 765.14C536.118 766.739 530.051 748.837 518.839 749.431C511.255 749.842 506.025 758.433 504.18 761.469C494.362 777.647 497.211 800.884 506.271 817.495C522.364 847.027 562.627 864.152 585.297 852.051C591.532 848.729 599.854 841.366 599.421 833.203C598.541 816.552 561.784 806.81 562.789 803.88C564.08 800.103 622.732 824.058 632.407 810.154C637.571 802.75 624.658 790.529 608.34 758.309V758.331Z" fill="#5AC8B5"/>
<path d="M647.595 925.365C652.147 919.253 665.636 903.933 682.137 888.719C696.202 875.735 700.669 873.726 700.977 868.291C702.166 848.237 644.848 816.571 617.748 833.203C595.607 846.8 606.103 884.986 588.066 890.912C567.524 897.641 544.586 851.886 514.633 858.325C502.643 860.91 501.862 869.421 485.934 871.943C472.528 874.074 466.686 869.05 448.975 866.59C436.593 864.867 416.667 862.098 406.17 869.032C381.898 885.049 389.813 964.986 434.869 1013.53C447.559 1027.2 476.24 1058.09 512.685 1050.99C550.121 1043.69 578.061 999.725 568.609 978.028C555.079 946.937 468.039 968.942 460.165 942.508C456.189 929.117 474.025 908.322 493.232 903.584C538.025 892.533 603.316 965.477 592.43 1010.12C585.44 1038.85 549.545 1045.13 552.56 1062.66C556.678 1086.66 628.347 1090.99 634.744 1091.31C685.786 1094.06 737.775 1080.18 737.591 1068.32C737.386 1055.61 677.567 1064.57 649.359 1025.28C629.495 997.613 628.674 950.733 647.555 925.384L647.595 925.365Z" fill="#5AC8B5"/>
<path d="M530.869 923.785C524.821 918.74 518.836 913.716 509.942 912.796C495.917 911.318 479.908 920.525 480.113 928.504C480.296 935.823 494.134 940.766 505.247 944.723C518.509 949.46 543.988 955.676 547.762 948.353C551.452 941.177 532.285 924.955 530.891 923.785H530.869Z" fill="#5AC8B5"/>
<path d="M395.981 431.521C316.093 620.993 455.104 793.994 375.032 857.566C348.339 878.753 306.213 880.722 283.173 864.643C239.693 834.292 284.772 754.004 266.69 646.687C239.099 482.915 91.4184 416.593 118.313 372.195C138.547 338.746 239.488 347.932 257.279 386.323C273.373 421.045 215.358 466.345 230.201 486.461C246.027 507.912 337.967 491.609 359.738 441.693C389.174 374.267 270.831 290.759 297.315 249.661C320.091 214.346 438.805 227.491 462.197 280.301C479.886 320.288 429.375 352.383 396.003 431.521H395.981Z" fill="#5AC8B5"/>
<path d="M259.638 230.813C244.325 265.392 297.524 334.808 312.631 354.517C332.557 380.501 350.554 396.209 348.607 420.755C346.703 444.934 326.674 461.933 324.54 463.697C307.61 477.682 289.221 478.874 283.972 479.142C277.616 479.468 255.211 480.598 251.253 471.288C245.906 458.633 282.824 446.001 288.421 418.152C296.028 380.273 243.793 323.899 185.306 311.594C145.6 303.248 126 320.064 114.645 307.41C93.0394 283.333 129.364 183.893 204.268 153.069C284.834 119.928 379.253 178.785 376.345 195.868C373.473 212.582 276.817 192.015 259.619 230.813H259.638Z" fill="#5AC8B5"/>
<path d="M134.407 518.659C173.415 515.257 221.058 541.669 227.043 573.251C230.55 591.688 219.642 610.022 204.268 634.898C182.148 670.704 159.93 687.927 163.044 692.236C168.27 699.434 227.249 646.544 252.156 662.395C278.702 679.274 253.59 766.002 227.432 819.486C222.822 828.939 190.719 894.502 171.307 889.394C166.179 888.041 160.421 881.213 146.583 771.968C142.791 742.109 140.454 718.487 138.342 718.567C132.91 718.751 154.454 873.377 119.502 884.679C90.8244 893.948 15.0548 809.354 11.1598 713.852C7.55452 625.526 65.404 524.728 134.425 518.681L134.407 518.659Z" fill="#5AC8B5"/>
<path d="M360.108 888.8C336.577 879.615 305.989 916.118 283.584 901.432C269.379 892.122 273.19 871.863 257.61 866.326C245.147 861.896 230.88 870.653 223.908 877.213C206.75 893.354 210.931 917.511 211.628 921.101C213.906 933.036 222.103 952.639 234.445 953.747C251.892 955.327 261.875 918.494 273.765 920.731C287.273 923.294 276.204 971.322 303.961 1010.99C318.371 1031.58 346.56 1054.62 364.682 1047.86C400.555 1034.46 398.67 903.834 360.108 888.782V888.8Z" fill="#5AC8B5"/>
<path d="M526.442 1061.43C505.167 1056.61 487.8 1091.89 473.185 1086.1C468.061 1084.07 466.976 1078.59 463.755 1071.17C451.744 1043.49 421.772 1016.54 405.272 1021.3C389.732 1025.79 379.235 1060.39 391.536 1077.06C395.882 1082.94 401.377 1084.3 432.76 1088.83C473.801 1094.75 496.452 1097.07 524.231 1091.97C537.922 1089.44 544.216 1086.72 545.426 1082.14C547.253 1075.23 537.471 1063.89 526.464 1061.41L526.442 1061.43Z" fill="#5AC8B5"/>
<path d="M371.115 1078.25C375.113 1071.71 377.673 1061.47 373.473 1056.65C370.418 1053.15 364.044 1052.86 335.403 1060.18C308.571 1067.05 294.139 1072.42 292.62 1069.61C290.919 1066.45 309.062 1059.69 311.072 1046.83C314.146 1027.29 279.399 994.698 244.732 999.315C229.746 1001.3 207.833 1011.19 202.338 1032.7C196.397 1055.96 212.303 1082.25 227.861 1084.15C249.816 1086.84 272.368 1041.09 276.527 1043.71C279.564 1045.62 262.322 1066.25 268.678 1080.63C279.234 1104.52 353.382 1107.33 371.133 1078.27L371.115 1078.25Z" fill="#5AC8B5"/>
<path d="M277.554 947.084C284.625 957.274 272.94 974.501 271.792 976.144C252.442 1004.03 215.05 986.561 196.947 1009.14C176.9 1034.14 206.068 1076.34 188.049 1089.78C178.253 1097.08 157.876 1093.3 146.968 1082.19C113.083 1047.61 180.014 951.576 158.738 934.265C132.291 912.755 12.451 1047.71 -25.4942 1022.76C-55.6494 1002.93 13.1662 914.251 -21.8266 796.557C-32.6901 760.032 -55.2388 715.451 -36.996 697.59C-31.667 692.379 -21.559 688.155 -12.9291 691.312C15.7114 701.751 -15.1847 777.424 26.8426 839.499C50.6602 874.69 87.6225 890.34 92.0089 892.122C141.269 912.282 190.738 898.194 198.465 918.435C202.236 928.317 191.475 934.368 195.37 947.884C201.95 970.625 241.267 984.101 252.42 973.804C260.888 965.99 250.597 946.839 259.348 941.463C264.475 938.328 273.637 941.463 277.532 947.084H277.554Z" fill="#5AC8B5"/>
<path d="M124.974 1053.52C137.623 988.057 155.356 959.43 145.784 952.988C138.914 948.375 124.093 959.203 114.539 966.177C89.5517 984.405 90.6777 998.988 66.101 1020.13C52.8572 1031.53 41.8066 1041.03 25.2839 1042.91C4.04839 1045.31 -7.63656 1032.58 -19.0759 1040.56C-28.0542 1046.81 -31.3149 1060.37 -28.5055 1071.2C-23.8953 1088.83 -3.1292 1099.15 6.81373 1094.37C17.9266 1089.02 10.3604 1068.75 20.9378 1061.78C40.886 1048.66 88.6898 1107.53 112.408 1094.78C120.118 1090.64 119.461 1082.02 124.974 1053.54V1053.52Z" fill="#5AC8B5"/>
<path d="M60.603 1083.74C60.1922 1077.12 45.3089 1070.07 34.3024 1074.31C28.7459 1076.46 22.3094 1082.23 23.3143 1087.66C24.4219 1093.71 34.1777 1096.4 40.596 1096.29C50.2712 1096.15 60.9733 1089.53 60.6249 1083.72L60.603 1083.74Z" fill="#5AC8B5"/>
<path d="M1095.1 258.293C1116.71 221.584 979.588 150.363 995.66 65.0911C1013.51 -29.6524 1201.68 -42.0793 1199.26 -101.409C1197.62 -141.542 1109.88 -175.871 1038.05 -179.153C896.234 -185.654 763.499 -73.6213 776.619 -23.6461C787.196 16.634 891.973 14.4999 894.389 51.7621C896.132 78.5447 842.566 88.6945 837.871 127.167C833.404 163.773 876.803 196.793 896.748 211.988C968.354 266.477 1077.29 288.625 1095.13 258.337L1095.1 258.293Z" fill="#5AC8B5"/>
<path d="M743.372 4.88171C766.045 35.3567 829.469 18.9111 838.634 47.2923C841.953 57.6071 834.02 60.7056 822.93 92.3283C814.156 117.369 801.037 154.793 814.036 189.184C820.553 206.473 829.223 211.17 826.069 217.466C817.971 233.644 759.934 203.888 727.135 231.594C711.536 244.78 715.963 258.868 704.113 263.525C670.965 276.586 590.505 184.366 606.25 159.325C622.648 133.221 738.409 188.098 748.62 167.179C754.954 154.177 712.6 127.97 659.119 55.1283C631.934 18.1116 619.45 -3.97729 620.392 -30.7379C623.202 -110.821 758.009 -174.518 778.98 -153.786C799.152 -133.831 710.531 -39.3109 743.393 4.86346L743.372 4.88171Z" fill="#5AC8B5"/>
<path d="M607.292 50.9407C636.955 108.363 712.131 116.606 707.271 133.668C703.559 146.652 656.76 153.275 626.154 132.623C592.35 109.797 593.846 64.189 585.851 65.0727C575.97 66.1801 559.363 137.628 590.032 200.155C606.041 232.782 629.576 252.059 623.528 260.364C616.028 270.701 579.638 240.864 540.299 254.09C508.545 264.776 504.65 293.505 489.521 291.272C458.713 286.696 473.677 167.26 416.77 140.477C391.658 128.667 373.719 144.826 361.297 132.091C330.096 100.139 403.977 -42.204 440.323 -34.9437C474.516 -28.116 460.392 108.055 489.521 111.663C509.201 114.106 544.832 55.5353 544.484 -5.61633C544.073 -76.2468 495.877 -109.736 513.61 -138.609C529.292 -164.163 587.512 -171.298 610.963 -147.508C648.087 -109.839 568.099 -24.9369 607.292 50.9407Z" fill="#5AC8B5"/>
<path d="M600.899 131.354C604.875 125.157 595.24 112.771 592.577 109.346C589.174 104.979 585.073 99.7096 582.205 100.674C580.214 101.33 579.025 104.961 579.557 121.549C580.338 145.688 580.727 157.766 586.038 159.714C592.577 162.115 604.445 151.39 603.092 145.523C601.985 140.705 592.086 139.616 592.412 136.624C592.658 134.324 598.522 135.083 600.899 131.354Z" fill="#5AC8B5"/>
<path d="M419.392 -179.952C415.724 -168.24 447.148 -159.689 478.268 -116.336C482.284 -110.737 520.805 -55.4706 517.527 17.9686C516.192 47.7249 508.035 79.3036 501.044 79.223C493.419 79.1423 494.626 41.715 474.351 -4.81702C464.555 -27.2947 440.404 -82.7664 409.984 -83.3605C374.581 -84.0572 339.606 -10.2293 329.113 48.5829C320.788 95.302 330.588 117.593 321.261 121.634C291.084 134.695 149.29 -81.8021 183.872 -115.559C207.117 -138.238 294.755 -63.4496 318.125 -86.4993C354.204 -122.1 187.213 -342.105 205.848 -356.666C217.431 -365.709 268.557 -270.472 356.58 -256.917C487.166 -236.821 579.682 -414.784 640.792 -383.366C682.731 -361.813 690.748 -251.462 643.146 -205.073C579.517 -143.078 427.633 -206.221 419.392 -179.93V-179.952Z" fill="#5AC8B5"/>
<path d="M146.172 -22.084C178.891 -23.3161 184.488 37.8575 249.02 92.5739C257.631 99.8746 264.6 104.795 263.944 111.418C261.791 132.726 185.944 119.294 136.765 157.766C71.617 208.706 99.6193 314.505 64.6045 322.011C38.8981 327.53 5.3798 274.434 -9.25768 238.649C-38.3456 167.549 -33.0167 67.0822 19.0122 35.2321C48.4302 17.228 71.0632 34.2274 84.9598 17.1656C114.829 -19.5026 13.1294 -101.409 30.778 -204.314C38.1792 -247.422 69.5449 -294.652 115.566 -309.561C118.313 -310.442 172.66 -327.382 196.437 -301.706C250.538 -243.26 97.958 -16.0338 115.566 -5.61633C120.345 -2.78925 128.296 -21.4277 146.194 -22.1061L146.172 -22.084Z" fill="#5AC8B5"/>
<path d="M299.325 -119.926C305.824 -128.682 285.201 -145.48 255.229 -200.376C244.12 -220.742 238.974 -233.044 232.721 -232.226C225.485 -231.262 226.45 -213.911 213.532 -180.506C203.941 -155.652 197.952 -151.12 201.132 -143.181C205.027 -133.398 221.568 -129.955 254.492 -123.413C282.043 -117.957 295.903 -115.313 299.325 -119.948V-119.926Z" fill="#5AC8B5"/>
<path d="M-13.1929 328.208C10.2578 313.031 51.5662 334.42 73.1721 354.129C107.816 385.729 115.463 434.704 106.936 471.944C104.31 483.388 97.4042 511.667 71.6134 532.421C49.6994 550.058 10.3604 565.334 -12.3936 549.71C-23.1984 542.285 -27.1116 530.041 -27.317 439.745C-27.5041 346.601 -23.3816 334.83 -13.1929 328.226V328.208Z" fill="#5AC8B5"/>
<path d="M1565.63 -93.5543C1562.52 -56.2516 1531.4 -14.7651 1493.42 -11.8719C1453.13 -8.8175 1420.54 -50.3223 1408.63 -80.9807C1393.4 -120.153 1414.45 -135.103 1399.2 -172.098C1381.96 -213.973 1348.07 -211.637 1323.82 -250.642C1299.06 -290.488 1300.1 -348.196 1317.55 -379.449C1379.78 -490.949 1730.78 -408.857 1732.07 -357.465C1733.1 -316.471 1511.46 -299.039 1505.96 -219.246C1502.88 -174.536 1570.56 -152.696 1565.63 -93.5725V-93.5543Z" fill="#5AC8B5"/>
<path d="M1820.02 -288.334C1817.56 -305.376 1715.59 -315.117 1625.31 -275.763C1607.64 -268.052 1546.37 -241.353 1546.8 -206.654C1547.08 -184.257 1572.77 -181.51 1584.47 -151.16C1605.34 -97.0597 1548.56 -41.4229 1564.59 -27.0673C1575.95 -16.8955 1617.36 -33.2385 1625.82 -58.998C1632.04 -77.9041 1616.21 -88.7947 1622.69 -109.263C1629.41 -130.549 1656 -148.597 1673.47 -143.306C1700.26 -135.162 1696.67 -74.747 1711.14 -74.1933C1720.47 -73.8266 1735.09 -98.3101 1731.03 -120.788C1723.44 -162.806 1656.14 -166.744 1654.09 -192.522C1650.77 -234.195 1823.28 -265.735 1820.02 -288.334Z" fill="#5AC8B5"/>
<path d="M1787.57 -239.648C1776.91 -253.716 1719.37 -223.364 1708.54 -217.665C1688.47 -207.083 1685.68 -201.832 1685.52 -197.773C1684.97 -184.789 1710.47 -168.816 1732.63 -170.539C1770 -173.469 1797.37 -226.748 1787.59 -239.648H1787.57Z" fill="#5AC8B5"/>
<path d="M1277.51 -149.334C1301.23 -136.291 1344.9 -199.68 1370.93 -186.248C1392.68 -175.031 1386.08 -118.47 1374.85 -84.9408C1362.73 -48.7015 1337.99 -29.447 1331.67 -24.4638C1316.75 -12.6933 1287.07 10.7487 1253.96 1.45697C1236.47 -3.44189 1216.96 -17.7572 1209.99 -38.5921C1198.08 -74.175 1233.19 -97.5328 1223.34 -137.564C1218.23 -158.233 1204.19 -170.99 1194.28 -179.974C1114.38 -252.487 857.636 -162.931 806.451 -234.954C764.057 -294.61 853.598 -477.824 960.322 -483.915C999.823 -486.171 1050.7 -464.72 1056.89 -432.072C1070.42 -360.664 871.661 -279.024 880.251 -261.634C886.706 -248.591 1009.19 -273.466 1129.92 -351.169C1208.06 -401.475 1244.65 -447.637 1267.31 -434.43C1289.16 -421.695 1283.62 -362.182 1272.8 -245.944C1267.76 -191.763 1262.08 -157.823 1277.51 -149.334Z" fill="#5AC8B5"/>
<path d="M1240.61 -463.49C1214.33 -463.551 1201.5 -440.89 1168.39 -414.005C1127.51 -380.824 1049.27 -324.654 1038.08 -335.461C1029.18 -344.054 1057.8 -403.177 1107.16 -445.423C1190.96 -517.137 1304.84 -514.738 1352.11 -513.754C1458.07 -511.539 1466.7 -478.911 1563.3 -487.832C1643.41 -495.235 1697.12 -523.187 1705.4 -508.258C1712.19 -495.994 1686.36 -458.547 1648.89 -441.506C1572.61 -406.827 1521.44 -490.006 1423.57 -465.069C1370.83 -451.636 1349.42 -418.25 1307.38 -430.514C1276.3 -439.578 1268.7 -463.428 1240.65 -463.51L1240.61 -463.49Z" fill="#5AC8B5"/>
<path d="M61.3844 -1.41052C56.0333 5.33643 45.4961 4.35004 38.2195 4.61768C-0.360222 5.99274 -17.8252 45.0188 -29.6973 40.9999C-52.1835 33.3913 5.83076 -108.174 -3.00453 -272.645C-10.2224 -406.785 -56.6727 -459.038 -21.8449 -496.095C9.04745 -528.969 53.9648 -495.931 230.179 -489.02C347.826 -484.426 386.039 -495.931 420.951 -463.098C467.628 -419.212 476.237 -326.313 443.316 -302.873C366.38 -248.096 90.1239 -450.076 82.95 -438.346C79.0146 -431.906 169.561 -378.012 159.229 -348.03C151.85 -326.62 102.568 -344.995 59.7852 -311.383C7.77826 -270.512 9.64156 -187.557 9.9313 -174.456C10.4411 -151.281 11.0169 -126.035 25.2436 -99.0472C33.5874 -83.2358 48.2432 -63.754 60.317 -29.6708C63.3721 -21.0354 67.2269 -8.77362 61.3624 -1.39227L61.3844 -1.41052Z" fill="#5AC8B5"/>
<path d="M873.172 -503.008C883.218 -481.475 831.416 -463.675 803.044 -396.184C757.741 -288.417 812.803 -181.796 783.671 -169.986C770.673 -164.716 749.907 -181.983 740.232 -197.219C725.594 -220.25 730.494 -247.77 736.564 -273.139C763.829 -387.264 809.543 -436.789 788.777 -465.028C780.209 -476.697 761.922 -482.521 747.552 -481.516C728.569 -480.204 715.142 -466.935 711.43 -463.182C707.905 -459.594 699.173 -450.755 696.261 -440.152C687.077 -406.889 743.122 -386.197 743.881 -344.341C744.457 -312.718 712.64 -312.944 700.955 -266.33C690.602 -225.047 710.653 -205.257 693.103 -175.75C680.065 -153.826 654.688 -140.189 648.087 -145.378C640.564 -151.303 660.96 -179.072 672.953 -218.424C692.142 -281.444 690.132 -375.471 644.951 -406.13C603.11 -434.533 544.953 -394.503 533.206 -415.564C522.382 -434.944 561.699 -486.725 587.776 -482.706C599.032 -480.983 600.855 -469.93 614.077 -465.828C637.223 -458.63 663.113 -482.706 673.753 -491.319C736.132 -541.809 858.887 -533.605 873.172 -503.008Z" fill="#5AC8B5"/>
<path d="M777.4 -447.39C776.56 -456.742 762.681 -464.535 750.71 -465.068C736.667 -465.683 722.462 -456.434 718.916 -443.863C715.512 -431.784 722.932 -420.095 724.799 -417.162C731.4 -406.744 738.347 -406.806 741.67 -396.737C744.395 -388.472 741.299 -383.694 745.194 -380.248C749.5 -376.455 759.216 -377.029 762.865 -381.828C768.81 -389.621 753.127 -401.207 756.593 -417.572C760.015 -433.794 778.383 -436.316 777.4 -447.411V-447.39Z" fill="#5AC8B5"/>
<path d="M581.915 -406.15C562.422 -418.209 531.056 -383.366 521.462 -390.975C508.651 -401.126 537.698 -484.715 583.742 -492.036C604.137 -495.276 624.698 -483.054 629.272 -490.457C632.345 -495.399 626.851 -506.883 618.797 -512.974C585.649 -538.076 501.272 -478.009 495.796 -486.786C493.111 -491.113 514.699 -503.705 511.501 -513.487C506.784 -527.863 453.156 -521.751 421.732 -514.533C403.672 -510.39 394.61 -508.196 393.216 -502.495C389.097 -485.843 454.447 -475.999 477.491 -429.201C501.495 -380.434 466.216 -318.726 475.914 -315.056C483.803 -312.082 494.567 -357.609 534.786 -373.954C560.738 -384.494 587.061 -378.076 590.527 -389.396C592.229 -394.974 587.677 -402.582 581.897 -406.15H581.915Z" fill="#5AC8B5"/>
<path d="M2060.25 31.2793C2006.59 -26.554 1978.71 -56.5962 1980.18 -92.4247C1983.12 -163.891 2100.46 -198.59 2090.88 -227.896C2083.75 -249.738 2018.48 -230.892 1947.2 -250.271C1827.5 -282.816 1726.03 -413.573 1751.71 -468.226C1784.61 -538.259 2035.68 -503.068 2043.77 -454.096C2049.86 -417.243 1918.83 -370.671 1926 -351.599C1933.42 -331.891 2064.97 -403.524 2141.52 -355.126C2264.25 -277.546 2205.17 82.9779 2135.63 93.7217C2120.4 96.0831 2100.35 74.4855 2060.25 31.2793Z" fill="#5AC8B5"/>
<path d="M2028.05 -196.849C2028.21 -199.452 2029.32 -217.295 2019.03 -223.939C2009.78 -229.927 1999 -219.469 1980.55 -216.862C1962.8 -214.361 1949.11 -220.371 1930.31 -228.636C1878.79 -251.276 1872.35 -281.565 1845.91 -279.679C1827.38 -278.366 1807.72 -261.878 1809.01 -249.45C1811.55 -224.944 1893.33 -237.455 1921.29 -188.584C1932.05 -169.78 1938.43 -135.635 1924.03 -113.179C1916.22 -100.998 1905.63 -97.4484 1905.97 -87.6469C1906.51 -72.5946 1932.38 -55.6135 1945.62 -61.7224C1966.82 -71.5055 1951.71 -141.355 1967.21 -144.574C1968.39 -144.82 1968.83 -144.494 1970.73 -144.186C1991.17 -140.944 2026.12 -165.985 2028.05 -196.808V-196.849Z" fill="#5AC8B5"/>
<path d="M2215.7 50.9445C2189.63 46.1226 2174.44 108.877 2137.19 109.841C2103.06 110.725 2087.89 58.7365 2064.17 64.2953C2040.9 69.7479 2027.99 126.287 2043.75 138.901C2058.1 150.385 2088.28 119.133 2109.7 132.627C2125.85 142.776 2115.71 164.946 2133.25 185.249C2149.94 204.566 2183.95 213.242 2209.41 201.735C2253.81 181.7 2245.51 112.529 2244.73 106.702C2244.03 101.536 2237.39 54.9413 2215.68 50.9445H2215.7Z" fill="#5AC8B5"/>
<path d="M2247.89 -23.6644C2249.47 -12.5283 2255.9 27.6859 2244.75 32.0971C2237.47 34.9682 2224.78 21.8409 2218.06 11.6692C2196.11 -21.4496 2215.42 -56.1672 2223.55 -119.497C2231.32 -179.89 2223.66 -225.377 2215.7 -272.647C2206.31 -328.366 2201.19 -356.564 2179.58 -373.175C2142.95 -401.332 2099.45 -369.73 2072.8 -397.517C2052.05 -419.153 2055.05 -462.116 2072.8 -490.191C2097.3 -528.971 2144.28 -530.489 2160.72 -531.022C2197.36 -532.211 2244.36 -517.897 2245.51 -499.604C2247.42 -469.15 2121.45 -439.783 2123.82 -431.273C2125.75 -424.321 2203.79 -465.767 2246.29 -435.99C2319.51 -384.659 2226.96 -170.539 2247.87 -23.6644H2247.89Z" fill="#5AC8B5"/>
<path d="M2046.11 -516.89C2041.76 -518.182 2047.11 -534.198 2039.04 -541.232C2029.67 -549.394 2014.34 -534.895 1991.15 -534.157C1953.96 -533.009 1935.86 -568.528 1919.71 -560.079C1909.19 -554.583 1904.01 -532.783 1911.86 -520.028C1925.22 -498.351 1964.7 -521.668 2017.06 -496.465C2036.5 -487.113 2043.14 -478.069 2053.18 -481.535C2076.41 -489.553 2077.45 -550.563 2071.24 -552.224C2066.08 -553.598 2052.9 -514.88 2046.11 -516.89Z" fill="#5AC8B5"/>
<path d="M2247.89 261.431C2246.19 258.051 2225.79 218.038 2214.13 221.382C2200.1 225.401 2221.42 285.49 2203.92 371.396C2195.66 411.896 2187.25 453.177 2153.67 486.054C2127.43 511.769 2106.46 512.118 2101.07 533.18C2092.89 565.111 2127.76 616.439 2167.02 616.439C2215.17 616.439 2235.94 539.23 2236.9 535.538C2243.62 509.327 2235.34 506.152 2238.48 466.425C2243.01 408.922 2261.21 404.841 2264.25 351.767C2267.04 303.105 2253.65 272.898 2247.91 261.453L2247.89 261.431Z" fill="#5AC8B5"/>
<path d="M2241.62 674.558C2235.1 683.091 2192.81 669.164 2157.61 643.922C2130.2 624.275 2123.11 609.241 2103.43 608.585C2082.44 607.888 2059.78 623.967 2061.03 635.286C2062.96 652.719 2119.44 639.881 2158.39 675.339C2203.9 716.785 2196.17 797.606 2194.51 812.002C2187.8 870.099 2159.47 891.55 2172.53 912.528C2187.85 937.158 2247.58 940.869 2284.81 917.247C2381.53 855.868 2345.98 597.452 2283.23 581.105C2260.95 575.301 2226.38 597.698 2222 621.158C2217.34 646.052 2247.7 666.601 2241.62 674.558Z" fill="#5AC8B5"/>
<path d="M2198.42 1165.43C2182.29 1170.39 2137.58 985.164 2075.96 985.575C2041.89 985.799 2003.31 1042.71 2011.59 1090.04C2020.9 1143.34 2086.06 1164.09 2119.93 1174.86C2140.55 1181.42 2259.49 1216.16 2321.71 1144.22C2324.74 1140.71 2369.41 1087.4 2348.4 1029.56C2324.89 964.821 2234.75 937.627 2200.8 962.811C2150.35 1000.22 2213.8 1160.73 2198.44 1165.45L2198.42 1165.43Z" fill="#5AC8B5"/>
<path d="M2162.84 862.263C2173.25 898.605 2139.9 930.228 2150 941.588C2158.37 950.979 2187.15 936.051 2189.77 941.588C2191.95 946.182 2170.69 953.38 2163.35 972.224C2153.14 998.412 2178.27 1025.28 2168.84 1033.48C2163.9 1037.77 2152.07 1034.73 2145.02 1028.5C2129.63 1014.9 2142.64 991.134 2129.85 979.547C2115.01 966.115 2082.8 984.735 2079.07 977.721C2075.88 971.692 2100.56 959.819 2118.6 934.001C2147.65 892.39 2139.1 843.643 2149.74 842.884C2154.96 842.514 2160.44 853.98 2162.82 862.263H2162.84Z" fill="#5AC8B5"/>
<path d="M1988.01 952.581C1974.81 923.807 1978.3 900.838 1969.18 899.177C1961.59 897.806 1958.76 913.573 1938.96 923.91C1923.32 932.072 1910.32 929.92 1909.52 934.903C1908.37 942.061 1934.94 946.736 1936.99 961.994C1938.12 970.38 1930.72 973.537 1931.5 980.06C1933.96 1000.57 2012.51 1014.98 2019.42 999.685C2023.07 991.607 2002.61 984.324 1988.01 952.559V952.581Z" fill="#5AC8B5"/>
<path d="M-30.3504 -317.454C-24.5079 -284.047 -18.5443 -248.65 -21.2913 -201.916C-23.3819 -166.374 -26.7635 -108.75 -45.7655 -104.874C-62.4935 -101.449 -87.7707 -140.372 -98.7589 -174.312C-129.284 -268.687 -66.6159 -378.444 -46.0148 -374.629C-40.1723 -373.543 -36.8897 -354.86 -30.3724 -317.475L-30.3504 -317.454Z" fill="#5AC8B5"/>
<path d="M1247.67 -540.843C1249.24 -533.584 1203.96 -517.157 1113.41 -484.304C1090.8 -476.101 1085.49 -474.461 1076.9 -473.702C1032.83 -469.826 1012.37 -499.049 959.13 -519.639C901.035 -542.115 867.025 -529.892 864.913 -540.843C859.87 -567.011 1054.43 -635.219 1068.64 -609.175C1075.43 -596.747 1035.64 -573.02 1042.73 -553.804C1057.22 -514.532 1244.24 -556.552 1247.64 -540.843H1247.67Z" fill="#5AC8B5"/>
</g>
<defs>
<clipPath id="clip0_1014_464">
<rect width="2194" height="957" fill="white"/>
</clipPath>
</defs>
</svg>
