<svg width="2194" height="957" viewBox="0 0 2194 957" fill="none" xmlns="http://www.w3.org/2000/svg">
<g clip-path="url(#clip0_1014_528)">
<rect width="2194" height="957" fill="#F0749E"/>
<g clip-path="url(#clip1_1014_528)">
<mask id="mask0_1014_528" style="mask-type:luminance" maskUnits="userSpaceOnUse" x="-4" y="-418" width="2210" height="1561">
<path d="M2205.62 -418L-3.61914 -418L-3.61921 1142.92L2205.62 1142.92L2205.62 -418Z" fill="white"/>
</mask>
<g mask="url(#mask0_1014_528)">
<path d="M523.896 733.842C664.744 839.799 735.168 892.776 790.097 883.23C853.065 872.293 853.124 822.033 998.029 701.922C1071.18 641.282 1127.38 595.529 1155.7 611.845C1204.67 640.05 1104.97 816.218 1173.98 882.099C1220.64 926.641 1337.06 913.72 1381.91 847.898C1428.41 779.675 1385.69 674.053 1327.08 624.388C1204.45 520.535 933.313 594.674 835.802 742.972C802.826 793.132 789.582 851.948 772.955 849.03C745.252 844.147 788.048 681.893 696.404 558.252C680.058 536.197 645.154 490.464 586.722 478.433C498.2 460.192 391.577 526.689 387.918 591.32C386.925 608.806 392.813 635.267 523.875 733.859L523.896 733.842Z" fill="#ED6694"/>
<path d="M336.351 1125.3C289.871 1144.63 190.134 1055.23 165.532 951.253C132.774 812.781 235.935 659.602 328.534 653.251C368.451 650.51 376.644 677.109 529.625 802.242C648.952 899.865 683.995 916.416 689.585 963.402C697.779 1032.36 636.902 1119.34 582.945 1118.49C465.883 1116.64 395.081 701.466 359.88 709.028C326.167 716.273 418.967 1090.94 336.371 1125.3L336.351 1125.3Z" fill="#ED6694"/>
<path d="M10.3216 1098.64C12.0732 1101.52 33.5734 1135.66 73.6283 1137.76C116.425 1140.01 142.062 1103.7 144.468 1100.15C166.764 1067.39 163.265 1021.66 138.424 991.172C119.25 967.649 84.1067 949.17 52.526 958.737C2.60539 973.862 -17.5205 1052.75 10.3216 1098.66L10.3216 1098.64Z" fill="#ED6694"/>
<path d="M1017.98 738.407C1078.36 682.965 1117.24 647.872 1132.23 657.816C1161.37 677.151 1050.41 833.745 1109.38 917.808C1137.84 958.38 1193.57 964.634 1209.92 966.458C1386.73 986.249 1505.6 740.927 1581.49 776.02C1622.38 794.939 1636 888.45 1599.9 942.123C1559.04 1002.92 1472.34 984.879 1327.52 998.457C1003.32 1028.87 803.426 1165.69 762.055 1103.28C756.011 1094.15 751.975 1078.67 757.482 1066.8C777.906 1022.83 910.702 1068.49 932.677 1025.75C944.949 1001.89 918.519 958.518 900.677 958.857C881.206 959.214 881.167 1011.4 845.845 1025.75C821.502 1035.63 782.621 1026.66 772.717 1005.98C761.539 982.615 789.285 948.356 1017.98 738.386L1017.98 738.407Z" fill="#ED6694"/>
<path d="M132.019 779.453C139.894 717.463 145.762 671.215 177.72 645.668C231.421 602.714 315.508 652.891 340.726 613.728C348.362 601.88 345.299 580.5 339.193 537.706C330.961 480.042 319.184 467.676 327.001 455.606C346.871 424.957 447.961 488.439 482.388 457.136C527.116 416.464 471.985 208.477 363.577 198.671C299.456 192.874 226.865 257.307 212.762 326.386C193.093 422.815 291.065 510.529 270.659 530.122C251.488 548.501 178.437 458.386 113.762 475.398C1.71199 504.852 -47.8105 846.029 48.2505 905.68C65.4723 916.378 94.4498 922.411 112.229 910.245C137.032 893.292 122.711 852.879 132.036 779.495L132.019 779.453Z" fill="#ED6694"/>
<path d="M541.794 371.226C595.197 434.902 658.261 404.336 717.746 476.132C782.265 554.023 754.578 646.163 797.06 658.807C831.067 668.931 851.653 610.731 927.962 562.797C1069.05 474.166 1247.83 516.586 1259.3 519.463C1359.16 544.574 1393.17 593.186 1430.68 571.927C1477.33 545.446 1480.02 438.792 1445.08 364.121C1393.43 253.795 1245.42 183.051 1126.79 210.066C941.885 252.168 876.892 520.712 825.161 503.503C769.038 484.844 880.191 180.134 748.991 75.5051C696.225 33.4412 614.485 31.8559 564.668 63.3355C475.946 119.393 473.478 289.722 541.814 371.226L541.794 371.226Z" fill="#ED6694"/>
<path d="M1829.04 773.362C1825.56 780.367 1763.39 902.939 1705.65 893.472C1630.97 881.223 1625.86 658.253 1570.07 656.287C1526.16 654.74 1507.42 792.118 1464.96 790.076C1423.5 788.089 1377.75 654.123 1419 613.074C1448.91 583.318 1506.17 620.757 1541.13 587.845C1552.01 577.603 1569.57 552.236 1553.32 469.264C1520.99 304.093 1418.8 237.876 1439.07 203.199C1462 163.994 1632.22 180.888 1745.27 282.259C1884.64 407.254 1901.07 628.4 1829.06 773.341L1829.04 773.362Z" fill="#ED6694"/>
<path d="M1259.3 1048.56C1214.71 1047.59 1145.78 1034.84 1125.63 1067.95C1117.18 1081.84 1117 1103.88 1127.92 1116.98C1152.78 1146.79 1218.73 1110.83 1318.53 1103.98C1387.95 1099.21 1418.94 1112.31 1478.66 1119.26C1737.75 1149.36 1847.25 983.29 2017.93 1055.4C2092.08 1086.73 2115.76 1141.65 2152.75 1127.24C2207.35 1105.98 2228.47 960.502 2173.32 913.239C2093.94 845.216 1881.86 1002.27 1854.93 964.929C1824.6 922.889 2113.89 751.487 2172.74 446.078C2199.23 308.658 2172.8 176.458 2149.31 173.938C2114.43 170.186 2057.01 449.512 2027.06 444.192C2006.6 440.561 2037.44 310.783 1970.7 264.016C1938.18 241.227 1883.33 238.749 1859.5 264.016C1819.01 306.972 1902.12 394.091 1914.34 555.926C1917.76 601.185 1926.37 715.46 1864.06 818.956C1783.25 953.178 1627.91 994.865 1572.34 1009.77C1386.01 1059.77 1259.3 1048.54 1259.3 1048.54L1259.3 1048.56Z" fill="#ED6694"/>
<path d="M2007.25 829.634C1999.88 832.233 1971.48 840.81 1959.26 865.364C1958.09 867.707 1948.29 887.415 1955.47 896.529C1973.76 919.791 2107.95 880.33 2162.64 784.773C2185.25 745.274 2187.42 708.135 2187.78 700.393C2188.75 678.778 2187.44 620.775 2169.5 616.767C2135.97 609.284 2089.47 800.695 2007.27 829.613L2007.25 829.634Z" fill="#ED6694"/>
<path d="M918.834 171.338C794.612 126.537 801.691 -19.4602 713.19 -43.0414C647.699 -60.4893 618.105 12.5801 548.675 -1.99159C463.733 -19.8168 387.878 -154.417 416.139 -248.306C459.852 -393.567 753.861 -444.838 927.962 -357.758C951.906 -345.768 991.165 -326.157 989.656 -303.032C984.702 -227.028 545.414 -203.247 546.366 -193.561C547.242 -184.47 940.909 -128.096 1309.55 -220.933C1348.52 -230.739 1406.57 -247.096 1428.37 -220.933C1470.57 -170.297 1358.6 17.4223 1209 114.308C1170.74 139.08 1087.76 191.247 980.506 182.809C961.215 181.3 942.342 179.811 918.813 171.317L918.834 171.338Z" fill="#ED6694"/>
<path d="M1528.92 -249.098C1491.06 -241.694 1525.88 -103.878 1428.39 33.7002C1387.64 91.2045 1342.19 122.688 1352.99 143.171C1365.6 167.112 1444.04 155.161 1499.23 136.325C1599.67 102.045 1623.01 44.9941 1663.74 56.5095C1721.48 72.8256 1699.78 194.504 1766.57 222.986C1821.42 246.37 1896.68 190.177 1931.08 154.565C2024.2 58.2539 2025.81 -101.674 1992.77 -114.537C1951.27 -130.714 1879.91 95.1365 1775.69 88.446C1649.65 80.3468 1588.07 -260.651 1528.9 -249.078L1528.92 -249.098Z" fill="#ED6694"/>
<path d="M1643.18 -290.149C1640.18 -284.135 1630.59 -263.67 1629.7 -226.63C1626.95 -112.613 1709.63 31.973 1789.42 26.8504C1866.6 21.887 1916.44 -121.506 1924.24 -214.899C1928.1 -261.069 1933.65 -327.645 1892.24 -363.137C1829.19 -417.207 1685.48 -374.947 1643.18 -290.149Z" fill="#ED6694"/>
<path d="M1971.87 -185.163C1993.27 -157.79 2019.34 -171.328 2040.8 -146.476C2092.1 -87.0858 1988.98 43.4847 2027.1 79.2943C2051.86 102.557 2129.35 79.3739 2164.21 26.833C2198.14 -24.3028 2188.43 -98.3208 2166.5 -105.447C2142.77 -113.149 2108.62 -41.3526 2093.37 -48.4377C2075.31 -56.8346 2096.51 -170.018 2130.96 -270.835C2148.48 -322.126 2161.19 -346.085 2148.2 -365.438C2128.41 -394.935 2061.55 -394.975 2017.95 -367.721C1954.65 -328.141 1937.52 -229.131 1971.87 -185.183L1971.87 -185.163Z" fill="#ED6694"/>
<path d="M1974.52 195.615C1976.31 214.71 1987.19 242.937 2011.07 250.34C2045.3 260.938 2077.26 219.83 2081.91 213.856C2087.96 206.075 2117.37 168.24 2100.19 138.606C2085.71 113.633 2046.95 109.663 2020.22 120.362C1989.89 132.49 1971.61 164.828 1974.52 195.615Z" fill="#ED6694"/>
<path d="M7.85649 153.811C14.9564 318.644 13.3674 393.693 69.2317 431.628C71.0629 432.877 115.531 462.315 147.749 445.978C205.901 416.502 190.49 255.145 145.104 239.6C130.091 234.461 118.017 248.274 107.615 241.227C85.9169 226.521 95.883 133.245 143.675 102.876C226.349 50.3353 369.185 219.394 460.271 163.696C506.076 135.688 505.3 71.3759 505.221 68.4165C502.753 -23.4886 375.488 -101.993 296.514 -83.3739C272.809 -77.7761 228.935 -57.6299 195.205 -37.0046C190.909 -34.3845 175.792 -25.015 154.832 -13.4442C117.539 7.16028 98.8843 17.4815 93.8926 13.9304C73.1504 -0.838566 191.425 -146.575 151.789 -200.189C130.984 -228.316 66.6251 -231.254 27.8857 -203.743C-17.7805 -171.268 -3.6189 -112.93 7.85649 153.811Z" fill="#ED6694"/>
<path d="M141.923 175.844C145.025 190.949 154.513 200.197 157.912 203.216C179.333 222.173 223.009 227.136 240.927 202.461C253.475 185.172 249.099 159.29 237.129 143.171C218.214 117.745 176.131 110.995 154.87 131.001C143.315 141.9 138.662 159.982 141.923 175.862L141.923 175.844Z" fill="#ED6694"/>
<path d="M847.994 278.487C853.979 363.881 830.99 413.169 844.197 418.367C857.302 423.528 894.432 380.754 911.993 330.951C930.51 278.407 923.209 229.517 936.097 227.275C945.447 225.648 949.722 251.292 969.37 256.414C997.275 263.68 1038.14 224.793 1032.34 209.332C1026.21 193.016 974.383 219.175 908.691 193.113C863.585 175.208 847.139 146.667 835.065 153.831C820.45 162.505 842.881 205.32 848.015 278.507L847.994 278.487Z" fill="#ED6694"/>
</g>
</g>
</g>
<defs>
<clipPath id="clip0_1014_528">
<rect width="2194" height="957" fill="white"/>
</clipPath>
<clipPath id="clip1_1014_528">
<rect width="1561" height="2212" fill="white" transform="translate(2207 -418) rotate(90)"/>
</clipPath>
</defs>
</svg>
