<svg width="52" height="52" viewBox="0 0 52 52" fill="none" xmlns="http://www.w3.org/2000/svg">
<g id="logoGraphics" clip-path="url(#clip0_1365_334)">
<g id="layer1">
<path id="Vector" d="M20.6429 32.6253C25.4535 32.6253 29.3532 28.7127 29.3532 23.8864C29.3532 19.06 25.4535 15.1475 20.6429 15.1475C15.8324 15.1475 11.9326 19.06 11.9326 23.8864C11.9326 28.7127 15.8324 32.6253 20.6429 32.6253Z" fill="#F0749E"/>
<path id="Vector_2" d="M37.7217 30.2263C41.6519 30.2263 44.838 27.0297 44.838 23.0866C44.838 19.1435 41.6519 15.947 37.7217 15.947C33.7915 15.947 30.6055 19.1435 30.6055 23.0866C30.6055 27.0297 33.7915 30.2263 37.7217 30.2263Z" fill="#F0749E"/>
</g>
<g id="Group">
<path id="Vector_3" d="M11.5337 12.7484C13.6843 12.7484 15.4277 10.9993 15.4277 8.84162C15.4277 6.68395 13.6843 4.93481 11.5337 4.93481C9.38306 4.93481 7.63965 6.68395 7.63965 8.84162C7.63965 10.9993 9.38306 12.7484 11.5337 12.7484Z" fill="#F4FEFF"/>
<path id="Vector_4" d="M17.8765 6.71703C19.436 6.71703 20.7002 5.44865 20.7002 3.88403C20.7002 2.3194 19.436 1.05103 17.8765 1.05103C16.317 1.05103 15.0527 2.3194 15.0527 3.88403C15.0527 5.44865 16.317 6.71703 17.8765 6.71703Z" fill="#F4FEFF"/>
<path id="Vector_5" d="M18.1378 13.6852C19.4646 13.6852 20.5403 12.606 20.5403 11.2748C20.5403 9.94365 19.4646 8.8645 18.1378 8.8645C16.811 8.8645 15.7354 9.94365 15.7354 11.2748C15.7354 12.606 16.811 13.6852 18.1378 13.6852Z" fill="#F4FEFF"/>
<path id="Vector_6" d="M13.3561 16.4041C14.2679 16.4041 15.007 15.6625 15.007 14.7477C15.007 13.8329 14.2679 13.0913 13.3561 13.0913C12.4442 13.0913 11.7051 13.8329 11.7051 14.7477C11.7051 15.6625 12.4442 16.4041 13.3561 16.4041Z" fill="#F4FEFF"/>
<path id="Vector_7" d="M6.46703 22.5955C9.10184 22.5955 11.2378 20.4526 11.2378 17.8091C11.2378 15.1657 9.10184 13.0227 6.46703 13.0227C3.83222 13.0227 1.69629 15.1657 1.69629 17.8091C1.69629 20.4526 3.83222 22.5955 6.46703 22.5955Z" fill="#F4FEFF"/>
<path id="Vector_8" d="M5.14649 33.9959C7.98881 33.9959 10.293 31.6842 10.293 28.8326C10.293 25.9809 7.98881 23.6692 5.14649 23.6692C2.30416 23.6692 0 25.9809 0 28.8326C0 31.6842 2.30416 33.9959 5.14649 33.9959Z" fill="#F4FEFF"/>
<path id="Vector_9" d="M14.4606 48.5723C17.2904 48.5723 19.5843 46.2708 19.5843 43.4318C19.5843 40.5928 17.2904 38.2913 14.4606 38.2913C11.6309 38.2913 9.33691 40.5928 9.33691 43.4318C9.33691 46.2708 11.6309 48.5723 14.4606 48.5723Z" fill="#F4FEFF"/>
<path id="Vector_10" d="M14.0281 37.7656C15.6756 37.7656 17.0112 36.4257 17.0112 34.7727C17.0112 33.1198 15.6756 31.7798 14.0281 31.7798C12.3805 31.7798 11.0449 33.1198 11.0449 34.7727C11.0449 36.4257 12.3805 37.7656 14.0281 37.7656Z" fill="#F4FEFF"/>
<path id="Vector_11" d="M20.802 38.7938C21.978 38.7938 22.9312 37.8374 22.9312 36.6577C22.9312 35.4779 21.978 34.5215 20.802 34.5215C19.6261 34.5215 18.6729 35.4779 18.6729 36.6577C18.6729 37.8374 19.6261 38.7938 20.802 38.7938Z" fill="#F4FEFF"/>
<path id="Vector_12" d="M21.3942 43.1803C22.2683 43.1803 22.9768 42.4694 22.9768 41.5925C22.9768 40.7155 22.2683 40.0046 21.3942 40.0046C20.5201 40.0046 19.8115 40.7155 19.8115 41.5925C19.8115 42.4694 20.5201 43.1803 21.3942 43.1803Z" fill="#F4FEFF"/>
<path id="Vector_13" d="M6.88875 41.5354C8.80669 41.5354 10.3615 39.9755 10.3615 38.0513C10.3615 36.127 8.80669 34.5671 6.88875 34.5671C4.97081 34.5671 3.41602 36.127 3.41602 38.0513C3.41602 39.9755 4.97081 41.5354 6.88875 41.5354Z" fill="#F4FEFF"/>
<path id="Vector_14" d="M22.4537 51.7936C24.2144 51.7936 25.6418 50.3615 25.6418 48.595C25.6418 46.8285 24.2144 45.3965 22.4537 45.3965C20.693 45.3965 19.2656 46.8285 19.2656 48.595C19.2656 50.3615 20.693 51.7936 22.4537 51.7936Z" fill="#F4FEFF"/>
<path id="Vector_15" d="M32.9624 50.1031C38.2509 50.1031 42.538 45.8018 42.538 40.496C42.538 35.1902 38.2509 30.8889 32.9624 30.8889C27.6739 30.8889 23.3867 35.1902 23.3867 40.496C23.3867 45.8018 27.6739 50.1031 32.9624 50.1031Z" fill="#F4FEFF"/>
<path id="Vector_16" d="M46.0452 37.3087C48.6611 37.3087 50.7818 35.1811 50.7818 32.5566C50.7818 29.932 48.6611 27.8044 46.0452 27.8044C43.4292 27.8044 41.3086 29.932 41.3086 32.5566C41.3086 35.1811 43.4292 37.3087 46.0452 37.3087Z" fill="#F4FEFF"/>
<path id="Vector_17" d="M45.1461 42.1866C46.3534 42.1866 47.3322 41.2047 47.3322 39.9933C47.3322 38.782 46.3534 37.8 45.1461 37.8C43.9387 37.8 42.96 38.782 42.96 39.9933C42.96 41.2047 43.9387 42.1866 45.1461 42.1866Z" fill="#F4FEFF"/>
<path id="Vector_18" d="M48.9825 27.8045C50.6426 27.8045 51.9884 26.4543 51.9884 24.7887C51.9884 23.1232 50.6426 21.7729 48.9825 21.7729C47.3224 21.7729 45.9766 23.1232 45.9766 24.7887C45.9766 26.4543 47.3224 27.8045 48.9825 27.8045Z" fill="#F4FEFF"/>
<path id="Vector_19" d="M49.666 21.179C50.5149 21.179 51.2031 20.4886 51.2031 19.6369C51.2031 18.7852 50.5149 18.0947 49.666 18.0947C48.8171 18.0947 48.1289 18.7852 48.1289 19.6369C48.1289 20.4886 48.8171 21.179 49.666 21.179Z" fill="#F4FEFF"/>
<path id="Vector_20" d="M46.9449 18.3802C48.4666 18.3802 49.7003 17.1426 49.7003 15.6158C49.7003 14.089 48.4666 12.8513 46.9449 12.8513C45.4231 12.8513 44.1895 14.089 44.1895 15.6158C44.1895 17.1426 45.4231 18.3802 46.9449 18.3802Z" fill="#F4FEFF"/>
<path id="Vector_21" d="M41.092 14.6106C43.4878 14.6106 45.4301 12.662 45.4301 10.2583C45.4301 7.8546 43.4878 5.90601 41.092 5.90601C38.6961 5.90601 36.7539 7.8546 36.7539 10.2583C36.7539 12.662 38.6961 14.6106 41.092 14.6106Z" fill="#F4FEFF"/>
<path id="Vector_22" d="M28.556 15.4673C32.8132 15.4673 36.2643 12.0048 36.2643 7.73363C36.2643 3.46247 32.8132 0 28.556 0C24.2988 0 20.8477 3.46247 20.8477 7.73363C20.8477 12.0048 24.2988 15.4673 28.556 15.4673Z" fill="#F4FEFF"/>
<g id="Group_2">
<path id="Vector_23" d="M25.5963 21.876C25.7443 22.3101 25.824 22.9041 25.824 23.6694C25.824 24.4348 25.7443 25.0288 25.5963 25.4515C25.4483 25.8742 25.175 26.194 24.7993 26.4111C24.4235 26.6281 23.8998 26.7538 23.2508 26.8109C22.6018 26.8566 21.7706 26.8908 20.7572 26.8908C19.7439 26.8908 18.9013 26.868 18.2523 26.8109C17.5919 26.7652 17.0681 26.6281 16.6924 26.4111C16.3167 26.194 16.0548 25.8856 15.9068 25.4515C15.7587 25.0288 15.6904 24.4348 15.6904 23.6694C15.6904 22.9041 15.7587 22.3101 15.9068 21.876C16.0548 21.4419 16.3167 21.122 16.6924 20.9164C17.0681 20.7108 17.5919 20.5851 18.2523 20.5394C18.9127 20.4937 19.7439 20.4595 20.7572 20.4595C21.7706 20.4595 22.6018 20.4823 23.2508 20.5394C23.8998 20.5851 24.4121 20.7222 24.7993 20.9164C25.175 21.122 25.4483 21.4419 25.5963 21.876Z" fill="#F4FEFF"/>
<path id="Vector_24" d="M26.154 30.2492C26.1198 30.2035 26.0857 30.1579 26.0515 30.1122L25.8921 29.8951L25.8238 29.8037C25.801 29.7809 25.7896 29.758 25.7668 29.7352L25.7555 29.7238C25.6074 29.5524 25.4936 29.4268 25.3911 29.3582C25.2772 29.2782 25.152 29.244 25.0381 29.244C24.8901 29.244 24.7193 29.2897 24.5485 29.3811C24.3664 29.4724 24.1386 29.5638 23.854 29.6438C23.4669 29.7466 23.0114 29.8151 22.4991 29.8608C21.9867 29.9065 21.406 29.9294 20.757 29.9294C19.2313 29.9294 18.0471 29.7923 17.1932 29.5181C16.3392 29.244 15.713 28.8442 15.3031 28.3187C14.8932 27.7932 14.6427 27.1421 14.5516 26.3653C14.4605 25.5885 14.415 24.686 14.415 23.6694C14.415 22.6527 14.4605 21.7502 14.5516 20.9734C14.6427 20.1967 14.8932 19.5455 15.3031 19.0086C15.713 18.4831 16.3392 18.0833 17.1932 17.8092C18.0471 17.535 19.2313 17.3979 20.757 17.3979C22.2827 17.3979 23.4669 17.535 24.3208 17.8092C25.1748 18.0833 25.801 18.4831 26.2109 19.0086C26.6208 19.5341 26.8713 20.1852 26.9624 20.9734C27.0535 21.7502 27.099 22.6527 27.099 23.6694C27.099 24.2177 27.0876 24.7203 27.0762 25.2001C27.0535 25.6799 27.0079 26.114 26.9282 26.5252C26.8827 26.7651 26.8371 26.9593 26.8144 27.1078C26.7916 27.2563 26.7802 27.3934 26.7802 27.519C26.7802 27.6904 26.8144 27.8275 26.8941 27.9417C26.9738 28.0559 27.099 28.2273 27.2926 28.4672L27.6455 28.9241C27.6683 28.9584 27.6911 28.9812 27.7139 29.0155C29.194 27.0393 29.8772 24.4347 29.3079 21.6703C28.5906 18.2318 25.9035 15.5245 22.4877 14.7934C16.6239 13.5482 11.466 18.0262 11.5229 23.7036C11.5685 28.6271 15.6105 32.6481 20.5179 32.6367C22.7495 32.6367 24.7763 31.8257 26.3475 30.4777L26.154 30.2492Z" fill="#F4FEFF"/>
</g>
<g id="Group_3">
<path id="Vector_25" d="M33.6574 21.2703C33.5322 21.6359 33.4639 22.1271 33.4639 22.7668C33.4639 23.4065 33.5322 23.8977 33.6574 24.2518C33.7827 24.6059 34.0104 24.8687 34.3178 25.0515C34.6366 25.2228 35.0693 25.337 35.6044 25.3827C36.151 25.4284 36.8341 25.4513 37.6881 25.4513C38.542 25.4513 39.2252 25.4284 39.7831 25.3827C40.3296 25.337 40.7623 25.2342 41.0811 25.0515C41.3999 24.8801 41.6163 24.6059 41.7415 24.2518C41.8668 23.8977 41.9237 23.4065 41.9237 22.7668C41.9237 22.1271 41.8668 21.6359 41.7415 21.2703C41.6277 20.9048 41.3999 20.642 41.0811 20.4707C40.7623 20.2993 40.3296 20.1965 39.7831 20.1508C39.2366 20.1051 38.542 20.0823 37.6881 20.0823C36.8341 20.0823 36.151 20.1051 35.6044 20.1508C35.0579 20.1965 34.6366 20.2993 34.3178 20.4707C33.999 20.642 33.7827 20.9048 33.6574 21.2703Z" fill="#F4FEFF"/>
<path id="Vector_26" d="M33.0421 28.4213C34.3515 29.5408 36.048 30.2148 37.9039 30.2148C41.9915 30.2148 45.3618 26.8792 45.396 22.7667C45.4415 18.0489 41.1376 14.3134 36.2644 15.3529C33.4178 15.9584 31.1748 18.2202 30.5827 21.0761C30.1045 23.3722 30.6738 25.5426 31.9035 27.1876C31.9149 27.1647 31.9377 27.1419 31.9604 27.1076L32.2565 26.7306C32.4159 26.5365 32.5183 26.3879 32.5867 26.2966C32.655 26.2052 32.6778 26.0909 32.6778 25.9424C32.6778 25.8396 32.6664 25.7254 32.6436 25.5997C32.6208 25.4741 32.5867 25.3141 32.5525 25.1085C32.4842 24.7658 32.4386 24.4003 32.4273 24.0119C32.4159 23.6121 32.4045 23.1894 32.4045 22.7439C32.4045 21.8986 32.4386 21.1446 32.5183 20.4935C32.598 19.8423 32.803 19.3054 33.1446 18.8599C33.4862 18.4258 34.0099 18.0946 34.7158 17.8661C35.4218 17.6376 36.4124 17.5234 37.6876 17.5234C38.9628 17.5234 39.942 17.6376 40.6594 17.8661C41.3653 18.0946 41.8891 18.4258 42.2306 18.8599C42.5722 19.294 42.7772 19.8423 42.8569 20.4935C42.9366 21.1446 42.9707 21.8871 42.9707 22.7439C42.9707 23.6006 42.9366 24.3432 42.8569 24.9943C42.7772 25.6454 42.5722 26.1823 42.2306 26.6278C41.8891 27.0619 41.3653 27.3932 40.6594 27.6217C39.9534 27.8501 38.9628 27.9644 37.6876 27.9644C37.1525 27.9644 36.6742 27.9415 36.2416 27.9073C35.8089 27.873 35.4332 27.8159 35.1144 27.7245C34.8753 27.6559 34.6817 27.576 34.5337 27.5074C34.3857 27.4275 34.249 27.3932 34.1238 27.3932C34.0213 27.3932 33.9302 27.4275 33.8277 27.4846C33.7367 27.5417 33.6342 27.6445 33.5203 27.793C33.5203 27.793 33.5203 27.8044 33.5089 27.8044C33.4975 27.8273 33.4748 27.8387 33.4634 27.8616L33.4065 27.9415L33.2698 28.1243C33.2471 28.1586 33.2129 28.2043 33.1787 28.2385L33.0421 28.4213Z" fill="#F4FEFF"/>
</g>
</g>
</g>
<defs>
<clipPath id="clip0_1365_334">
<rect width="52" height="52" fill="white"/>
</clipPath>
</defs>
</svg>
