<svg width="36" height="36" viewBox="0 0 36 36" fill="none" xmlns="http://www.w3.org/2000/svg">
<g id="36 / bubble">
<path id="Bubble (Traced)" fill-rule="evenodd" clip-rule="evenodd" d="M12.5413 3.96084C6.15172 6.64035 2.68689 12.0632 3.02228 18.8585C3.30639 24.6122 6.53797 29.4648 11.6932 31.879C13.761 32.8472 14.631 33 18.0799 33C21.5287 33 22.3987 32.8472 24.4665 31.879C27.5207 30.449 30.4463 27.5264 31.8778 24.4753C32.847 22.4096 33 21.5405 33 18.0952C33 14.6499 32.847 13.7808 31.8778 11.7151C30.4442 8.65984 27.517 5.73808 24.4665 4.31814C21.0067 2.70758 15.8948 2.55434 12.5413 3.96084ZM15.9633 7.79033C16.6261 8.58805 16.2709 9.10027 14.4599 9.95887C12.5699 10.8548 10.832 12.5909 9.93514 14.479C9.05422 16.3331 8.50238 16.6849 7.71182 15.8952C7.16503 15.3485 7.16461 15.0996 7.7114 13.7925C8.5835 11.708 11.072 9.08641 13.1583 8.05483C15.2648 7.01318 15.3135 7.00856 15.9633 7.79033Z" fill="#A7B5B6"/>
</g>
</svg>
