<svg width="36" height="36" viewBox="0 0 36 36" fill="none" xmlns="http://www.w3.org/2000/svg">
<g id="36 / coffee">
<path id="Coffee Beans (Traced)" fill-rule="evenodd" clip-rule="evenodd" d="M9.44238 3.76C2.55373 6.90093 0.738976 18.6655 6.20823 24.7267C7.00938 25.6143 7.78344 26.3401 7.92842 26.3397C8.07381 26.3393 8.21255 25.2351 8.23713 23.8862C8.29378 20.7719 9.3803 17.742 11.3984 15.0728C13.1752 12.7223 13.4623 10.7748 12.2945 8.9903C11.6508 8.00714 11.6529 7.89035 12.3207 7.23213C12.9931 6.56932 13.0969 6.59727 14.0513 7.69764C14.6096 8.34126 15.0666 9.20136 15.0666 9.60931C15.0666 10.834 15.457 10.8778 17.4946 9.88169C18.5653 9.3582 19.8939 8.75254 20.4476 8.53605L21.4541 8.14271L19.8226 6.33114C17.8525 4.14375 15.5045 3 12.9836 3C11.9525 3 10.3589 3.34204 9.44238 3.76ZM19.0244 11.6791C12.3628 14.8463 8.71998 22.621 11.2671 28.2347C14.0393 34.3455 22.9372 34.63 28.7656 28.794C32.2043 25.3515 33.8316 19.9661 32.5805 16.1707C30.8716 10.9854 24.7495 8.95693 19.0244 11.6791ZM27.8586 17.2306C27.5441 19.581 25.6223 21.4168 21.9407 22.8842C19.2831 23.9433 18.9373 24.222 18.0429 26.0277C17.3551 27.4159 16.8085 28.009 16.2173 28.009C15.4678 28.009 15.3995 27.8146 15.6061 26.2738C15.9207 23.9233 17.8425 22.0875 21.5241 20.6201C24.1816 19.561 24.5274 19.2824 25.4219 17.4767C26.1097 16.0885 26.6563 15.4953 27.2475 15.4953C27.9969 15.4953 28.0653 15.6897 27.8586 17.2306Z" fill="#A7B5B6"/>
</g>
</svg>
