<svg width="36" height="36" viewBox="0 0 36 36" fill="none" xmlns="http://www.w3.org/2000/svg">
<g id="36 / dessert">
<path id="Cupcake (Traced)" fill-rule="evenodd" clip-rule="evenodd" d="M16.1752 3.65558C15.7957 4.05902 15.485 4.60042 15.485 4.85869C15.485 5.11696 15.1564 5.32831 14.7552 5.32871C13.3611 5.32911 9.01062 7.62626 7.21613 9.30942C4.22684 12.1139 2.06119 17.5243 3.40945 18.8209C3.64925 19.0515 4.40157 21.8098 5.08175 24.9503C6.41459 31.1051 6.73695 31.9601 7.96053 32.5897C8.43511 32.834 12.4899 33 17.9743 33C28.1979 33 28.838 32.8604 29.6179 30.4606C29.8447 29.762 30.4332 27.205 30.9253 24.7787C31.4178 22.3524 32.0859 19.8431 32.4103 19.2027C32.7348 18.5622 33.0004 17.5696 33 16.9969C32.9996 15.3166 30.7705 11.2849 28.7884 9.37881C26.9868 7.64632 22.6563 5.32911 21.2192 5.32871C20.8181 5.32831 20.4894 5.08568 20.4894 4.78891C20.4894 3.14947 17.4122 2.34097 16.1752 3.65558ZM15.0855 9.55927C15.5284 10.073 15.5013 10.2972 14.9279 10.8482C14.2807 11.471 14.1872 11.471 13.54 10.8482C12.9666 10.2972 12.9395 10.073 13.3824 9.55927C13.6776 9.21759 14.0609 8.93766 14.2339 8.93766C14.407 8.93766 14.7903 9.21759 15.0855 9.55927ZM27.5965 11.9655C28.0394 12.4792 28.0123 12.7034 27.4389 13.2544C26.7916 13.8773 26.6982 13.8773 26.051 13.2544C25.4776 12.7034 25.4505 12.4792 25.8933 11.9655C26.1886 11.6238 26.5719 11.3439 26.7449 11.3439C26.918 11.3439 27.3012 11.6238 27.5965 11.9655ZM8.83004 14.3717C9.27293 14.8855 9.24582 15.1097 8.6724 15.6607C8.02517 16.2835 7.93175 16.2835 7.28452 15.6607C6.7111 15.1097 6.68399 14.8855 7.12688 14.3717C7.42214 14.0301 7.80539 13.7501 7.97846 13.7501C8.15153 13.7501 8.53478 14.0301 8.83004 14.3717ZM20.0899 15.5749C20.5328 16.0886 20.5057 16.3128 19.9323 16.8638C19.285 17.4866 19.1916 17.4866 18.5444 16.8638C17.971 16.3128 17.9439 16.0886 18.3868 15.5749C18.682 15.2332 19.0653 14.9532 19.2383 14.9532C19.4114 14.9532 19.7947 15.2332 20.0899 15.5749ZM29.0903 20.4675C28.9735 20.8533 28.4681 23.0643 27.9681 25.3803C26.9864 29.9248 26.659 30.5938 25.4171 30.5938C24.6848 30.5938 24.6393 30.4145 24.9354 28.6888C25.1152 27.6413 25.2678 26.062 25.2741 25.1797C25.2836 23.8178 25.1435 23.5563 24.3478 23.4477C23.261 23.2993 22.844 24.0989 22.399 27.1849C21.9424 30.3539 21.8073 30.5938 20.4778 30.5938H19.2709L19.1503 27.0847C19.0319 23.6398 19.0106 23.5756 17.9872 23.5756C16.9638 23.5756 16.9426 23.6398 16.8241 27.0847L16.7036 30.5938H15.4967C14.1672 30.5938 14.0321 30.3539 13.5755 27.1849C13.1305 24.0989 12.7134 23.2993 11.6267 23.4477C10.831 23.5563 10.6908 23.8178 10.7004 25.1797C10.7067 26.062 10.8593 27.6413 11.0391 28.6888C11.3352 30.4145 11.2897 30.5938 10.5574 30.5938C9.31547 30.5938 8.9881 29.9248 8.0064 25.3803C7.50638 23.0643 7.00094 20.8533 6.88417 20.4675C6.68483 19.8114 7.40713 19.7657 17.9872 19.7657C28.5674 19.7657 29.2897 19.8114 29.0903 20.4675Z" fill="#A7B5B6"/>
</g>
</svg>
