<svg width="36" height="36" viewBox="0 0 36 36" fill="none" xmlns="http://www.w3.org/2000/svg">
<g id="36 / milk">
<path id="Milk Bottle (Traced)" fill-rule="evenodd" clip-rule="evenodd" d="M13.4788 3.514C13.3532 3.83878 13.3532 4.37046 13.4788 4.69524C13.6693 5.18685 14.4424 5.26737 18.0898 5.17683L21.5093 5.09175C22.045 5.07843 22.4722 4.6404 22.4722 4.10462C22.4722 3.56884 22.045 3.13081 21.5093 3.11748L18.0898 3.03241C14.4424 2.94187 13.6693 3.02239 13.4788 3.514ZM12.6528 10.3626L11 13.1458V22.4351C11 30.9453 11.0595 31.7783 11.7113 32.3624C12.3043 32.8941 13.3606 33 18.0677 33C23.0427 33 23.789 32.9164 24.3564 32.2953C24.9176 31.6812 25 30.4114 25 22.395V13.1993L23.3752 10.3857L21.7501 7.57206L18.028 7.57553L14.3056 7.57938L12.6528 10.3626Z" fill="#A7B5B6"/>
</g>
</svg>
