<svg width="36" height="36" viewBox="0 0 36 36" fill="none" xmlns="http://www.w3.org/2000/svg">
<g id="36 / strawberry">
<path id="Strawberry (Traced)" fill-rule="evenodd" clip-rule="evenodd" d="M16.6736 3.75155C16.3266 4.23482 16.0431 4.85231 16.0431 5.12345C16.0431 5.74827 16.0984 5.75714 14.2664 4.8446C11.3468 3.39054 10.2989 3.99376 11.2954 6.55513L11.6804 7.54443H18.0172H24.3541L24.739 6.55513C25.7343 3.99762 24.6877 3.39054 21.7798 4.83881C20.9341 5.25998 20.2306 5.56352 20.2156 5.51377C20.201 5.46401 19.9163 4.90245 19.5835 4.26606C18.8191 2.80506 17.517 2.57481 16.6736 3.75155ZM14.51 9.50374C13.9928 9.70622 12.7302 9.76292 11.7041 9.62986C9.19776 9.30511 6.49799 10.4394 5.56029 12.2109C3.82506 15.4885 6.19398 21.6433 11.6456 28.0219C15.182 32.1596 16.2575 33 18.0172 33C19.7769 33 20.8524 32.1596 24.3888 28.0219C33.3271 17.5643 33.183 9.17127 24.0722 9.56583C22.8048 9.62099 21.4127 9.53768 20.9784 9.38147C20.3372 9.15044 20.0399 9.36797 19.3983 10.5385C18.3978 12.3632 17.6358 12.3621 16.6361 10.5347C16.2014 9.73978 15.7569 9.09992 15.6483 9.11265C15.5397 9.12537 15.0276 9.30163 14.51 9.50374ZM11.7246 14.9177C12.0811 15.5679 12.0436 15.8591 11.5414 16.3501C10.9634 16.9144 10.8576 16.9144 10.2796 16.3501C9.77735 15.8591 9.73984 15.5679 10.0964 14.9177C10.3423 14.4683 10.7087 14.1012 10.9105 14.1012C11.1122 14.1012 11.4786 14.4683 11.7246 14.9177ZM18.8313 14.9177C19.1879 15.5679 19.1503 15.8591 18.6481 16.3501C18.0701 16.9144 17.9643 16.9144 17.3863 16.3501C16.8841 15.8591 16.8466 15.5679 17.2031 14.9177C17.4491 14.4683 17.8155 14.1012 18.0172 14.1012C18.219 14.1012 18.5854 14.4683 18.8313 14.9177ZM25.9381 14.9177C26.2946 15.5679 26.2571 15.8591 25.7549 16.3501C25.1769 16.9144 25.071 16.9144 24.493 16.3501C23.9908 15.8591 23.9533 15.5679 24.3098 14.9177C24.5558 14.4683 24.9222 14.1012 25.1239 14.1012C25.3257 14.1012 25.6921 14.4683 25.9381 14.9177ZM15.278 20.703C15.6345 21.3533 15.597 21.6445 15.0948 22.1355C14.5168 22.6998 14.4109 22.6998 13.8329 22.1355C13.3307 21.6445 13.2932 21.3533 13.6497 20.703C13.8957 20.2537 14.2621 19.8865 14.4638 19.8865C14.6656 19.8865 15.032 20.2537 15.278 20.703ZM22.3847 20.703C22.7412 21.3533 22.7037 21.6445 22.2015 22.1355C21.6235 22.6998 21.5177 22.6998 20.9397 22.1355C20.4375 21.6445 20.3999 21.3533 20.7565 20.703C21.0024 20.2537 21.3688 19.8865 21.5706 19.8865C21.7723 19.8865 22.1387 20.2537 22.3847 20.703ZM18.8313 26.4884C19.1879 27.1387 19.1503 27.4299 18.6481 27.9208C18.0701 28.4851 17.9643 28.4851 17.3863 27.9208C16.8841 27.4299 16.8466 27.1387 17.2031 26.4884C17.4491 26.0391 17.8155 25.6719 18.0172 25.6719C18.219 25.6719 18.5854 26.0391 18.8313 26.4884Z" fill="#A7B5B6"/>
</g>
</svg>
