<svg width="27" height="30" viewBox="0 0 27 30" fill="none" xmlns="http://www.w3.org/2000/svg">
<path id="Winter (Traced)" fill-rule="evenodd" clip-rule="evenodd" d="M12.6688 0.183712C12.5148 0.334973 12.3888 1.24564 12.3888 2.20712V3.95554L11.4366 3.07707C10.3268 2.05276 9.08068 2.13576 8.91836 3.24423C8.84529 3.74184 9.44443 4.63467 10.5969 5.74508C11.6901 6.79887 12.3888 7.81891 12.3888 8.36112C12.3888 8.8502 12.236 9.25007 12.0492 9.25007C11.8619 9.25007 11.0918 9.66158 10.337 10.1646C9.12887 10.9698 8.87491 11.0144 8.21178 10.5381C7.79748 10.2406 7.19043 9.01775 6.86262 7.82085C6.19239 5.37158 5.32191 4.53266 4.30767 5.35878C3.84834 5.73344 3.73815 6.21089 3.92141 7.0308C4.06241 7.66183 4.02607 8.10863 3.84005 8.02292C3.65442 7.93759 3.02486 7.63235 2.44152 7.34418C-0.0198323 6.13021 -0.800654 8.34018 1.59869 9.73023L3.05172 10.5723L1.83803 10.8814C0.408692 11.2448 -0.12252 12.2563 0.694244 13.0584C1.20215 13.5567 1.5742 13.5513 3.74486 13.0145C7.03403 12.2008 7.64937 12.5243 7.64937 15.0678C7.64937 17.6113 7.03403 17.9348 3.74486 17.1211C1.5742 16.5843 1.20215 16.5789 0.694244 17.0773C-0.127259 17.884 0.411062 18.8904 1.86607 19.267L3.10741 19.5886L1.83566 20.2409C0.283887 21.0372 -0.405306 22.129 0.242812 22.7654C0.862494 23.374 1.81473 23.3274 2.73576 22.6433C3.87875 21.7943 4.18484 21.9261 3.91114 23.151C3.73854 23.922 3.85782 24.4099 4.30767 24.7768C5.32191 25.603 6.19239 24.764 6.86262 22.3148C7.19043 21.1179 7.79748 19.895 8.21178 19.5975C8.87491 19.1212 9.12887 19.1658 10.337 19.971C11.0918 20.474 11.8619 20.8855 12.0492 20.8855C12.236 20.8855 12.3888 21.2854 12.3888 21.7745C12.3888 22.3167 11.6901 23.3368 10.5969 24.3905C9.44443 25.5009 8.84529 26.3938 8.91836 26.8914C9.0795 27.9913 10.3236 28.0856 11.4133 27.0803L12.3418 26.2235L12.4639 28.112C12.5756 29.8352 12.6724 30 13.5737 30C14.475 30 14.5717 29.8352 14.6835 28.112L14.8055 26.2235L15.7341 27.0803C16.8237 28.0856 18.0678 27.9913 18.229 26.8914C18.302 26.3938 17.7029 25.5009 16.5504 24.3905C15.4572 23.3368 14.7585 22.3167 14.7585 21.7745C14.7585 21.2854 14.9114 20.8855 15.0982 20.8855C15.2854 20.8855 16.0556 20.474 16.8103 19.971C18.0185 19.1658 18.2724 19.1212 18.9356 19.5975C19.3499 19.895 19.9569 21.1179 20.2847 22.3148C20.955 24.764 21.8254 25.603 22.8397 24.7768C23.299 24.4022 23.4092 23.9247 23.2259 23.1048C23.0849 22.4738 23.1213 22.027 23.3073 22.1127C23.4929 22.198 24.1225 22.5033 24.7058 22.7914C27.1672 24.0054 27.948 21.7954 25.5487 20.4054L24.0956 19.5634L25.3093 19.2543C26.7386 18.8908 27.2699 17.8793 26.4531 17.0773C25.9452 16.5789 25.5731 16.5843 23.4025 17.1211C20.1133 17.9348 19.498 17.6113 19.498 15.0678C19.498 12.5243 20.1133 12.2008 23.4025 13.0145C25.5731 13.5513 25.9452 13.5567 26.4531 13.0584C27.2699 12.2563 26.7386 11.2448 25.3093 10.8814L24.0956 10.5723L25.5487 9.73023C27.948 8.34018 27.1672 6.13021 24.7058 7.34418C24.1225 7.63235 23.4929 7.93759 23.3073 8.02292C23.1213 8.10863 23.0849 7.66183 23.2259 7.0308C23.4092 6.21089 23.299 5.73344 22.8397 5.35878C21.8254 4.53266 20.955 5.37158 20.2847 7.82085C19.9569 9.01775 19.3499 10.2406 18.9356 10.5381C18.2724 11.0144 18.0185 10.9698 16.8103 10.1646C16.0556 9.66158 15.2854 9.25007 15.0982 9.25007C14.9114 9.25007 14.7585 8.8502 14.7585 8.36112C14.7585 7.81891 15.4572 6.79887 16.5504 5.74508C17.7029 4.63467 18.302 3.74184 18.229 3.24423C18.0678 2.14429 16.8237 2.05004 15.7341 3.05535L14.8055 3.91211L14.6835 2.02367C14.5824 0.466454 14.4197 0.115838 13.755 0.0223666C13.3114 -0.0400771 12.8229 0.0328385 12.6688 0.183712ZM15.1175 12.1407C15.7277 12.4506 16.4568 13.2484 16.7372 13.914C17.8325 16.5098 15.0125 19.238 12.3525 18.1559C10.6167 17.45 9.73235 15.5204 10.4089 13.9163C10.8959 12.762 12.4046 11.6256 13.4947 11.5927C13.7767 11.5841 14.5073 11.8308 15.1175 12.1407ZM12.5424 14.4589C12.1491 15.4654 12.7 16.2969 13.6708 16.1615C14.9363 15.9851 14.9363 14.1505 13.6708 13.9741C13.1365 13.8996 12.685 14.0935 12.5424 14.4589Z" fill="#A7B5B6"/>
</svg>
